STARTFONT 2.1
COMMENT $Xorg: $
COMMENT ISO10646-1 extension by Markus Kuhn <mkuhn@acm.org>, 2001-03-20
COMMENT  (c) Copyright Bigelow & Holmes 1986, 1985. Lucida is a registered
COMMENT  trademark of Bigelow & Holmes. See LEGAL NOTICE file for terms 
COMMENT  of the license. 
FONT -B&H-LucidaBright-DemiBold-I-Normal--17-120-100-100-P-101-ISO10646-1
SIZE 12 100 100
FONTBOUNDINGBOX 31 27 -11 -7
STARTPROPERTIES 22
COMMENT Begin LogicalFontDescription
FONTNAME_REGISTRY ""
FOUNDRY "B&H"
FAMILY_NAME "LucidaBright"
WEIGHT_NAME "DemiBold"
SLANT "I"
SETWIDTH_NAME "Normal"
ADD_STYLE_NAME ""
PIXEL_SIZE 17
POINT_SIZE 120
RESOLUTION_X 100
RESOLUTION_Y 100
SPACING "P"
AVERAGE_WIDTH 101
CHARSET_REGISTRY "ISO10646"
CHARSET_ENCODING "1"
COMMENT END LogicalFontDescription
FONT_ASCENT 15
FONT_DESCENT 4
DEFAULT_CHAR 0
COPYRIGHT "Copyright Bigelow & Holmes 1986, 1985."
FACE_NAME "Lucida Bright Demibold Italic"
X_HEIGHT 9
CAP_HEIGHT 13
ENDPROPERTIES
CHARS 723
STARTCHAR char0
ENCODING 0
SWIDTH 827 0
DWIDTH 14 0
BBX 15 13 1 0
BITMAP
AAAA
0000
8002
0000
8002
0000
8002
0000
8002
0000
8002
0000
AAAA
ENDCHAR
STARTCHAR space
ENCODING 32
SWIDTH 333 0
DWIDTH 5 0
BBX 1 1 0 0
BITMAP
00
ENDCHAR
STARTCHAR exclam
ENCODING 33
SWIDTH 265 0
DWIDTH 4 0
BBX 5 13 1 0
BITMAP
38
38
38
30
30
30
20
60
60
00
00
E0
E0
ENDCHAR
STARTCHAR quotedbl
ENCODING 34
SWIDTH 451 0
DWIDTH 8 0
BBX 6 5 3 8
BITMAP
CC
CC
CC
4C
48
ENDCHAR
STARTCHAR numbersign
ENCODING 35
SWIDTH 636 0
DWIDTH 11 0
BBX 11 13 1 0
BITMAP
0220
0240
0440
0480
7FE0
0900
1100
1200
FFC0
2400
4400
4800
C800
ENDCHAR
STARTCHAR dollar
ENCODING 36
SWIDTH 636 0
DWIDTH 11 0
BBX 9 15 2 -2
BITMAP
1F80
3580
3580
3400
3400
1800
0C00
0E00
0F00
0B00
D700
D600
FC00
1000
1000
ENDCHAR
STARTCHAR percent
ENCODING 37
SWIDTH 772 0
DWIDTH 13 0
BBX 12 13 2 0
BITMAP
3830
6C60
CCC0
CD80
D900
7200
06E0
0D20
0B20
1320
3360
6360
C1C0
ENDCHAR
STARTCHAR ampersand
ENCODING 38
SWIDTH 773 0
DWIDTH 13 0
BBX 12 13 1 0
BITMAP
0780
0DC0
1CC0
1D80
0D80
0E00
3EF0
6660
C760
C340
E380
6180
3FE0
ENDCHAR
STARTCHAR quotesingle
ENCODING 39
SWIDTH 247 0
DWIDTH 4 0
BBX 3 6 3 7
BITMAP
E0
C0
C0
40
40
40
ENDCHAR
STARTCHAR parenleft
ENCODING 40
SWIDTH 336 0
DWIDTH 6 0
BBX 6 16 1 -3
BITMAP
04
08
18
30
70
60
60
E0
C0
C0
C0
C0
C0
40
60
20
ENDCHAR
STARTCHAR parenright
ENCODING 41
SWIDTH 336 0
DWIDTH 6 0
BBX 6 16 0 -3
BITMAP
10
18
08
0C
0C
0C
0C
0C
0C
1C
18
18
30
20
40
80
ENDCHAR
STARTCHAR asterisk
ENCODING 42
SWIDTH 434 0
DWIDTH 8 0
BBX 7 6 2 7
BITMAP
18
52
EE
38
E8
4C
ENDCHAR
STARTCHAR plus
ENCODING 43
SWIDTH 636 0
DWIDTH 11 0
BBX 10 11 1 0
BITMAP
0600
0400
0400
0400
0400
FFC0
0800
0800
0800
0800
1800
ENDCHAR
STARTCHAR comma
ENCODING 44
SWIDTH 265 0
DWIDTH 4 0
BBX 4 6 0 -3
BITMAP
70
70
70
20
60
C0
ENDCHAR
STARTCHAR hyphen
ENCODING 45
SWIDTH 289 0
DWIDTH 5 0
BBX 4 1 2 5
BITMAP
F0
ENDCHAR
STARTCHAR period
ENCODING 46
SWIDTH 265 0
DWIDTH 4 0
BBX 3 3 1 0
BITMAP
E0
E0
E0
ENDCHAR
STARTCHAR slash
ENCODING 47
SWIDTH 515 0
DWIDTH 9 0
BBX 12 16 0 -3
BITMAP
0030
0020
0040
00C0
0080
0100
0300
0200
0400
0C00
0800
1000
3000
2000
4000
C000
ENDCHAR
STARTCHAR zero
ENCODING 48
SWIDTH 623 0
DWIDTH 11 0
BBX 10 13 2 0
BITMAP
0F00
1980
31C0
71C0
61C0
E1C0
E1C0
E1C0
E180
E380
E300
6600
3C00
ENDCHAR
STARTCHAR one
ENCODING 49
SWIDTH 636 0
DWIDTH 11 0
BBX 7 13 2 0
BITMAP
3E
0E
0E
0C
0C
1C
1C
1C
18
18
18
38
FE
ENDCHAR
STARTCHAR two
ENCODING 50
SWIDTH 636 0
DWIDTH 11 0
BBX 10 13 1 0
BITMAP
1F00
31C0
21C0
01C0
01C0
0380
0600
0C00
1000
2000
6000
FF00
FF00
ENDCHAR
STARTCHAR three
ENCODING 51
SWIDTH 636 0
DWIDTH 11 0
BBX 9 13 2 0
BITMAP
1F00
1380
2180
0180
0180
0600
3E00
0700
0380
0380
C300
C700
FC00
ENDCHAR
STARTCHAR four
ENCODING 52
SWIDTH 636 0
DWIDTH 11 0
BBX 10 13 1 0
BITMAP
01C0
03C0
0780
0D80
1980
3180
6380
C300
FFC0
0300
0300
0700
0F80
ENDCHAR
STARTCHAR five
ENCODING 53
SWIDTH 636 0
DWIDTH 11 0
BBX 10 13 2 0
BITMAP
1FC0
3FC0
2000
2000
2000
3C00
0700
0300
0300
0380
C300
C600
F800
ENDCHAR
STARTCHAR six
ENCODING 54
SWIDTH 636 0
DWIDTH 11 0
BBX 10 13 2 0
BITMAP
07C0
18C0
30C0
7000
6000
EF00
F380
E180
C180
C180
E300
6700
3C00
ENDCHAR
STARTCHAR seven
ENCODING 55
SWIDTH 636 0
DWIDTH 11 0
BBX 9 13 3 0
BITMAP
7F80
7F80
0100
0200
0600
0C00
0800
1800
3000
6000
6000
E000
E000
ENDCHAR
STARTCHAR eight
ENCODING 56
SWIDTH 636 0
DWIDTH 11 0
BBX 10 13 1 0
BITMAP
0F80
19C0
30C0
30C0
3980
1F00
3F00
6780
E180
E180
E180
E300
3C00
ENDCHAR
STARTCHAR nine
ENCODING 57
SWIDTH 636 0
DWIDTH 11 0
BBX 10 13 1 0
BITMAP
0F00
3980
31C0
60C0
60C0
61C0
73C0
3DC0
0180
0380
C300
C600
F800
ENDCHAR
STARTCHAR colon
ENCODING 58
SWIDTH 265 0
DWIDTH 4 0
BBX 4 9 1 0
BITMAP
30
70
00
00
00
00
00
E0
C0
ENDCHAR
STARTCHAR semicolon
ENCODING 59
SWIDTH 265 0
DWIDTH 4 0
BBX 5 12 0 -3
BITMAP
38
38
00
00
00
00
00
70
60
60
60
C0
ENDCHAR
STARTCHAR less
ENCODING 60
SWIDTH 636 0
DWIDTH 11 0
BBX 11 11 1 0
BITMAP
0020
00E0
0380
0E00
3800
E000
3000
1C00
0700
0180
0080
ENDCHAR
STARTCHAR equal
ENCODING 61
SWIDTH 636 0
DWIDTH 11 0
BBX 11 5 1 2
BITMAP
7FE0
0000
0000
0000
FFC0
ENDCHAR
STARTCHAR greater
ENCODING 62
SWIDTH 636 0
DWIDTH 11 0
BBX 11 11 0 0
BITMAP
2000
3000
1C00
0700
0180
00E0
0380
0E00
3800
E000
8000
ENDCHAR
STARTCHAR question
ENCODING 63
SWIDTH 493 0
DWIDTH 8 0
BBX 7 13 3 0
BITMAP
7C
CE
8E
06
0C
08
10
20
60
00
00
E0
C0
ENDCHAR
STARTCHAR at
ENCODING 64
SWIDTH 861 0
DWIDTH 15 0
BBX 13 13 2 0
BITMAP
07C0
1830
2010
4708
48C8
9888
9188
9388
9390
9DE0
4000
6100
1E00
ENDCHAR
STARTCHAR A
ENCODING 65
SWIDTH 765 0
DWIDTH 13 0
BBX 13 13 0 0
BITMAP
00C0
01C0
01C0
02C0
02C0
04E0
08E0
0860
1FE0
1070
2070
4070
F0F8
ENDCHAR
STARTCHAR B
ENCODING 66
SWIDTH 651 0
DWIDTH 11 0
BBX 11 13 1 0
BITMAP
3FC0
1CE0
1CE0
18E0
18C0
1980
1F00
39C0
30C0
30C0
30C0
71C0
FF00
ENDCHAR
STARTCHAR C
ENCODING 67
SWIDTH 740 0
DWIDTH 13 0
BBX 12 13 2 0
BITMAP
07F0
1C30
3830
3030
6000
6000
E000
E000
E000
E000
6000
70C0
1F80
ENDCHAR
STARTCHAR D
ENCODING 68
SWIDTH 822 0
DWIDTH 14 0
BBX 14 13 1 0
BITMAP
3FF0
1C38
1C1C
1C1C
1C1C
181C
181C
381C
3818
3838
3070
70E0
FF80
ENDCHAR
STARTCHAR E
ENCODING 69
SWIDTH 630 0
DWIDTH 11 0
BBX 11 13 1 0
BITMAP
3FE0
1C60
1C00
1C00
1800
1880
3F80
3880
3800
3000
3000
7080
FF80
ENDCHAR
STARTCHAR F
ENCODING 70
SWIDTH 602 0
DWIDTH 10 0
BBX 11 13 1 0
BITMAP
3FE0
1C60
1C00
1800
1800
1880
3F80
3880
3800
3000
3000
7000
F800
ENDCHAR
STARTCHAR G
ENCODING 71
SWIDTH 780 0
DWIDTH 13 0
BBX 12 13 2 0
BITMAP
07F0
1C30
3830
3000
7000
6000
E000
E1F0
E0E0
E0C0
60C0
71C0
1F80
ENDCHAR
STARTCHAR H
ENCODING 72
SWIDTH 827 0
DWIDTH 14 0
BBX 15 13 1 0
BITMAP
3F3E
1C1C
1C18
1C18
1838
1838
1FF0
3830
3830
3070
3070
7070
F9F8
ENDCHAR
STARTCHAR I
ENCODING 73
SWIDTH 372 0
DWIDTH 6 0
BBX 8 13 0 0
BITMAP
3F
0E
0C
1C
1C
1C
18
18
38
38
38
70
FC
ENDCHAR
STARTCHAR J
ENCODING 74
SWIDTH 478 0
DWIDTH 8 0
BBX 10 16 0 -3
BITMAP
07C0
0380
0300
0300
0700
0700
0700
0600
0600
0600
0E00
0E00
0E00
CC00
D800
F000
ENDCHAR
STARTCHAR K
ENCODING 75
SWIDTH 746 0
DWIDTH 13 0
BBX 13 13 1 0
BITMAP
3E38
1C30
1C40
1880
1900
1A00
1F00
3F00
3B80
31C0
31C0
70E0
F9F0
ENDCHAR
STARTCHAR L
ENCODING 76
SWIDTH 611 0
DWIDTH 10 0
BBX 10 13 1 0
BITMAP
3F00
1C00
1C00
1C00
1C00
1800
1800
3800
3800
3800
3040
70C0
FF80
ENDCHAR
STARTCHAR M
ENCODING 77
SWIDTH 926 0
DWIDTH 16 0
BBX 17 13 1 0
BITMAP
3C0780
1C0F00
1E0E00
161600
161600
162E00
174C00
334C00
238C00
230C00
211C00
601C00
F03E00
ENDCHAR
STARTCHAR N
ENCODING 78
SWIDTH 797 0
DWIDTH 14 0
BBX 15 13 0 0
BITMAP
3C1E
1C0C
1E08
1608
1708
1318
1390
3190
21D0
20D0
20F0
6060
F060
ENDCHAR
STARTCHAR O
ENCODING 79
SWIDTH 831 0
DWIDTH 14 0
BBX 13 13 2 0
BITMAP
07C0
0C70
3830
3038
7038
6038
E038
E030
E070
E060
E0C0
7180
3E00
ENDCHAR
STARTCHAR P
ENCODING 80
SWIDTH 628 0
DWIDTH 11 0
BBX 11 13 1 0
BITMAP
3FC0
1CE0
18E0
18E0
18E0
18C0
3980
3F00
3000
3000
3000
7000
F800
ENDCHAR
STARTCHAR Q
ENCODING 81
SWIDTH 835 0
DWIDTH 14 0
BBX 14 16 2 -3
BITMAP
07C0
0C70
3830
3038
7038
6038
E038
E038
E070
E070
E0E0
71C0
3F80
0200
01C0
007C
ENDCHAR
STARTCHAR R
ENCODING 82
SWIDTH 711 0
DWIDTH 12 0
BBX 12 13 0 0
BITMAP
3FE0
0C70
1C70
1C70
1C60
18E0
1F80
3B80
3980
39C0
30C0
70E0
F870
ENDCHAR
STARTCHAR S
ENCODING 83
SWIDTH 587 0
DWIDTH 10 0
BBX 10 13 1 0
BITMAP
0FC0
18C0
30C0
3000
3800
3C00
1E00
0700
0380
0380
C380
C700
FC00
ENDCHAR
STARTCHAR T
ENCODING 84
SWIDTH 716 0
DWIDTH 12 0
BBX 12 13 2 0
BITMAP
FFF0
C630
8630
0E00
0E00
0C00
0C00
0C00
1C00
1C00
1C00
1800
7E00
ENDCHAR
STARTCHAR U
ENCODING 85
SWIDTH 775 0
DWIDTH 13 0
BBX 13 13 3 0
BITMAP
FC78
7020
7020
7020
6040
6040
E040
E040
E040
E080
E080
6100
3E00
ENDCHAR
STARTCHAR V
ENCODING 86
SWIDTH 741 0
DWIDTH 13 0
BBX 13 13 2 0
BITMAP
F838
7010
7020
7060
3040
3880
3880
3900
1B00
1A00
1C00
1C00
1800
ENDCHAR
STARTCHAR W
ENCODING 87
SWIDTH 922 0
DWIDTH 16 0
BBX 16 13 2 0
BITMAP
F087
6182
6184
6384
6388
75C8
75D0
75D0
78E0
78E0
30C0
30C0
2080
ENDCHAR
STARTCHAR X
ENCODING 88
SWIDTH 672 0
DWIDTH 11 0
BBX 13 13 0 0
BITMAP
1E38
1C30
0E20
0E40
0680
0700
0300
0780
0B80
1180
21C0
60C0
E3E0
ENDCHAR
STARTCHAR Y
ENCODING 89
SWIDTH 669 0
DWIDTH 11 0
BBX 12 13 2 0
BITMAP
F870
7060
7040
3880
3900
1A00
1E00
1C00
1C00
1800
1800
3800
7E00
ENDCHAR
STARTCHAR Z
ENCODING 90
SWIDTH 684 0
DWIDTH 12 0
BBX 12 13 1 0
BITMAP
1FF0
10E0
10E0
01C0
0380
0700
0E00
0E00
1C00
3800
7040
70C0
FFC0
ENDCHAR
STARTCHAR bracketleft
ENCODING 91
SWIDTH 336 0
DWIDTH 6 0
BBX 7 16 1 -3
BITMAP
1E
18
18
38
30
30
30
30
70
60
60
60
60
E0
C0
F0
ENDCHAR
STARTCHAR backslash
ENCODING 92
SWIDTH 515 0
DWIDTH 9 0
BBX 5 16 3 -3
BITMAP
80
80
40
40
40
40
20
20
20
20
10
10
10
10
08
08
ENDCHAR
STARTCHAR bracketright
ENCODING 93
SWIDTH 336 0
DWIDTH 6 0
BBX 7 16 0 -3
BITMAP
1E
06
0E
0C
0C
0C
0C
1C
18
18
18
18
38
30
30
F0
ENDCHAR
STARTCHAR asciicircum
ENCODING 94
SWIDTH 636 0
DWIDTH 11 0
BBX 10 11 1 2
BITMAP
0200
0200
0700
0500
0900
0900
1180
3080
2080
40C0
C0C0
ENDCHAR
STARTCHAR underscore
ENCODING 95
SWIDTH 500 0
DWIDTH 8 0
BBX 7 1 1 -2
BITMAP
FE
ENDCHAR
STARTCHAR grave
ENCODING 96
SWIDTH 599 0
DWIDTH 10 0
BBX 3 2 6 11
BITMAP
C0
20
ENDCHAR
STARTCHAR a
ENCODING 97
SWIDTH 634 0
DWIDTH 11 0
BBX 10 9 1 0
BITMAP
0FC0
11C0
3180
6180
E380
E780
EF80
FB80
63C0
ENDCHAR
STARTCHAR b
ENCODING 98
SWIDTH 633 0
DWIDTH 11 0
BBX 10 13 1 0
BITMAP
7800
3800
3800
3000
3380
35C0
79C0
71C0
7180
6180
6300
E200
FC00
ENDCHAR
STARTCHAR c
ENCODING 99
SWIDTH 524 0
DWIDTH 9 0
BBX 9 9 1 0
BITMAP
0F80
3100
6100
6000
E000
E000
E000
E100
7E00
ENDCHAR
STARTCHAR d
ENCODING 100
SWIDTH 634 0
DWIDTH 11 0
BBX 11 13 1 0
BITMAP
01E0
00E0
00C0
00C0
0FC0
11C0
31C0
6180
6380
E380
E780
EB80
73C0
ENDCHAR
STARTCHAR e
ENCODING 101
SWIDTH 548 0
DWIDTH 9 0
BBX 8 9 1 0
BITMAP
0E
33
63
63
E6
FC
E0
E1
7E
ENDCHAR
STARTCHAR f
ENCODING 102
SWIDTH 415 0
DWIDTH 7 0
BBX 9 16 1 -3
BITMAP
0780
0C80
1880
1800
7E00
3800
3000
3000
3000
7000
7000
6000
6000
6000
E000
C000
ENDCHAR
STARTCHAR g
ENCODING 103
SWIDTH 628 0
DWIDTH 11 0
BBX 10 12 1 -3
BITMAP
07C0
19C0
31C0
7180
6380
6380
6780
6B80
7300
8300
C600
FC00
ENDCHAR
STARTCHAR h
ENCODING 104
SWIDTH 656 0
DWIDTH 11 0
BBX 10 13 1 0
BITMAP
7800
3800
3800
3800
3180
37C0
79C0
79C0
7180
6180
6380
E380
E3C0
ENDCHAR
STARTCHAR i
ENCODING 105
SWIDTH 319 0
DWIDTH 5 0
BBX 5 13 2 0
BITMAP
38
38
00
00
F0
70
70
70
60
60
E0
E0
F0
ENDCHAR
STARTCHAR j
ENCODING 106
SWIDTH 381 0
DWIDTH 6 0
BBX 9 17 0 -4
BITMAP
0180
0380
0000
0000
0F00
0700
0700
0700
0600
0600
0600
0E00
0E00
0C00
CC00
D800
F000
ENDCHAR
STARTCHAR k
ENCODING 107
SWIDTH 626 0
DWIDTH 11 0
BBX 9 13 2 0
BITMAP
7800
3800
3000
3000
3380
7380
7700
6E00
7C00
6C00
EE00
E700
C380
ENDCHAR
STARTCHAR l
ENCODING 108
SWIDTH 319 0
DWIDTH 5 0
BBX 5 13 1 0
BITMAP
78
38
38
30
30
70
70
70
60
60
E0
E0
F0
ENDCHAR
STARTCHAR m
ENCODING 109
SWIDTH 969 0
DWIDTH 16 0
BBX 15 9 2 0
BITMAP
F39C
77BE
79AE
71CE
73CC
638C
630C
E31C
C31E
ENDCHAR
STARTCHAR n
ENCODING 110
SWIDTH 656 0
DWIDTH 11 0
BBX 10 9 1 0
BITMAP
F380
35C0
79C0
79C0
7180
6180
6380
E380
E3C0
ENDCHAR
STARTCHAR o
ENCODING 111
SWIDTH 599 0
DWIDTH 10 0
BBX 9 9 1 0
BITMAP
0F00
3180
7180
6180
E180
E380
E300
E600
7C00
ENDCHAR
STARTCHAR p
ENCODING 112
SWIDTH 639 0
DWIDTH 11 0
BBX 11 12 1 -3
BITMAP
79C0
3AE0
3CE0
38E0
38E0
70C0
7180
7100
7E00
6000
E000
E000
ENDCHAR
STARTCHAR q
ENCODING 113
SWIDTH 630 0
DWIDTH 11 0
BBX 10 12 1 -3
BITMAP
0FC0
11C0
3180
6180
E380
E380
E780
EB00
7300
0300
0700
0700
ENDCHAR
STARTCHAR r
ENCODING 114
SWIDTH 496 0
DWIDTH 8 0
BBX 9 9 1 0
BITMAP
F180
3700
7C00
7800
7000
6000
6000
E000
E000
ENDCHAR
STARTCHAR s
ENCODING 115
SWIDTH 479 0
DWIDTH 8 0
BBX 8 9 1 0
BITMAP
1F
31
33
38
1C
0E
86
CE
FC
ENDCHAR
STARTCHAR t
ENCODING 116
SWIDTH 375 0
DWIDTH 6 0
BBX 6 12 2 0
BITMAP
30
30
30
FC
70
60
60
60
E0
E0
E0
70
ENDCHAR
STARTCHAR u
ENCODING 117
SWIDTH 655 0
DWIDTH 11 0
BBX 10 9 2 0
BITMAP
F3C0
71C0
7180
6180
6380
E780
E780
FB00
E3C0
ENDCHAR
STARTCHAR v
ENCODING 118
SWIDTH 584 0
DWIDTH 10 0
BBX 10 9 1 0
BITMAP
F1C0
70C0
7080
3180
3B00
3A00
3C00
1800
1000
ENDCHAR
STARTCHAR w
ENCODING 119
SWIDTH 822 0
DWIDTH 14 0
BBX 14 9 1 0
BITMAP
E11C
710C
3388
3390
35B0
3DA0
39C0
31C0
3080
ENDCHAR
STARTCHAR x
ENCODING 120
SWIDTH 534 0
DWIDTH 9 0
BBX 9 9 1 0
BITMAP
7180
3980
1900
1E00
0C00
3E00
6600
C700
C780
ENDCHAR
STARTCHAR y
ENCODING 121
SWIDTH 586 0
DWIDTH 10 0
BBX 12 12 0 -3
BITMAP
3870
1C30
1C20
0C60
0CC0
0F80
0F00
0600
0400
0800
1000
F000
ENDCHAR
STARTCHAR z
ENCODING 122
SWIDTH 567 0
DWIDTH 10 0
BBX 10 9 1 0
BITMAP
3FC0
2180
2300
0600
0C00
1800
3880
7180
FF80
ENDCHAR
STARTCHAR braceleft
ENCODING 123
SWIDTH 361 0
DWIDTH 6 0
BBX 6 16 2 -3
BITMAP
1C
38
38
30
30
30
30
20
C0
60
60
60
E0
C0
C0
60
ENDCHAR
STARTCHAR bar
ENCODING 124
SWIDTH 253 0
DWIDTH 4 0
BBX 4 16 1 -3
BITMAP
10
30
30
20
20
20
20
60
60
40
40
40
40
C0
C0
80
ENDCHAR
STARTCHAR braceright
ENCODING 125
SWIDTH 361 0
DWIDTH 6 0
BBX 6 16 1 -3
BITMAP
18
0C
0C
1C
18
18
18
0C
10
30
30
30
30
70
70
E0
ENDCHAR
STARTCHAR asciitilde
ENCODING 126
SWIDTH 636 0
DWIDTH 11 0
BBX 10 4 1 3
BITMAP
7040
9840
8440
8380
ENDCHAR
STARTCHAR space
ENCODING 160
SWIDTH 333 0
DWIDTH 5 0
BBX 1 1 0 0
BITMAP
00
ENDCHAR
STARTCHAR exclamdown
ENCODING 161
SWIDTH 265 0
DWIDTH 4 0
BBX 5 12 0 -3
BITMAP
38
38
00
30
30
30
60
60
60
E0
E0
E0
ENDCHAR
STARTCHAR cent
ENCODING 162
SWIDTH 636 0
DWIDTH 11 0
BBX 9 13 2 0
BITMAP
0600
0400
1F80
3580
7500
6400
E400
E800
E800
E900
7E00
1000
1000
ENDCHAR
STARTCHAR sterling
ENCODING 163
SWIDTH 636 0
DWIDTH 11 0
BBX 10 13 2 0
BITMAP
07C0
0EC0
0CC0
1C00
1C00
1800
7E00
1800
3800
3000
2000
FF00
FF00
ENDCHAR
STARTCHAR currency
ENCODING 164
SWIDTH 636 0
DWIDTH 11 0
BBX 12 13 1 0
BITMAP
2010
1010
1F20
08C0
10C0
1040
3040
10C0
1080
1900
2F80
4040
8040
ENDCHAR
STARTCHAR yen
ENCODING 165
SWIDTH 636 0
DWIDTH 11 0
BBX 12 13 2 0
BITMAP
F870
7060
3040
3880
3900
1A00
1E00
7F00
1C00
7F00
1800
3800
7C00
ENDCHAR
STARTCHAR brokenbar
ENCODING 166
SWIDTH 253 0
DWIDTH 4 0
BBX 4 16 1 -3
BITMAP
10
30
30
20
20
20
60
00
00
60
40
40
40
C0
C0
80
ENDCHAR
STARTCHAR section
ENCODING 167
SWIDTH 636 0
DWIDTH 11 0
BBX 10 16 1 -3
BITMAP
0FC0
18C0
30C0
3000
3C00
1F00
2780
6180
7180
7900
1E00
0F00
0300
C300
C700
FC00
ENDCHAR
STARTCHAR dieresis
ENCODING 168
SWIDTH 599 0
DWIDTH 10 0
BBX 5 1 5 12
BITMAP
D8
ENDCHAR
STARTCHAR copyright
ENCODING 169
SWIDTH 853 0
DWIDTH 14 0
BBX 13 13 2 0
BITMAP
0F80
3060
6030
47D0
8C48
9808
9008
9008
9808
4F90
6030
3060
0F80
ENDCHAR
STARTCHAR ordfeminine
ENCODING 170
SWIDTH 468 0
DWIDTH 8 0
BBX 7 8 2 5
BITMAP
1E
66
66
CE
CE
DC
EC
CE
ENDCHAR
STARTCHAR guillemotleft
ENCODING 171
SWIDTH 527 0
DWIDTH 9 0
BBX 9 9 1 0
BITMAP
0880
1980
3300
6600
CC00
6E00
6600
3200
2300
ENDCHAR
STARTCHAR logicalnot
ENCODING 172
SWIDTH 636 0
DWIDTH 11 0
BBX 10 5 2 2
BITMAP
FFC0
00C0
00C0
0080
0080
ENDCHAR
STARTCHAR hyphen
ENCODING 173
SWIDTH 289 0
DWIDTH 5 0
BBX 4 1 2 5
BITMAP
F0
ENDCHAR
STARTCHAR registered
ENCODING 174
SWIDTH 636 0
DWIDTH 11 0
BBX 8 9 3 4
BITMAP
3C
42
BD
95
BD
A9
AD
42
3C
ENDCHAR
STARTCHAR macron
ENCODING 175
SWIDTH 599 0
DWIDTH 10 0
BBX 5 1 5 12
BITMAP
F8
ENDCHAR
STARTCHAR degree
ENCODING 176
SWIDTH 259 0
DWIDTH 4 0
BBX 3 4 4 9
BITMAP
C0
A0
A0
C0
ENDCHAR
STARTCHAR plusminus
ENCODING 177
SWIDTH 636 0
DWIDTH 11 0
BBX 11 11 0 0
BITMAP
0200
0200
0200
0200
7FE0
0400
0400
0400
0400
0000
FFC0
ENDCHAR
STARTCHAR twosuperior
ENCODING 178
SWIDTH 381 0
DWIDTH 6 0
BBX 6 8 -10 5
BITMAP
38
44
04
0C
10
60
40
F8
ENDCHAR
STARTCHAR threesuperior
ENCODING 179
SWIDTH 381 0
DWIDTH 6 0
BBX 5 8 -10 5
BITMAP
38
48
08
70
18
08
98
F0
ENDCHAR
STARTCHAR acute
ENCODING 180
SWIDTH 599 0
DWIDTH 10 0
BBX 5 2 6 11
BITMAP
38
C0
ENDCHAR
STARTCHAR mu
ENCODING 181
SWIDTH 687 0
DWIDTH 12 0
BBX 10 12 1 -3
BITMAP
7BC0
31C0
31C0
3180
7180
7380
6780
6780
7BC0
E000
E000
C000
ENDCHAR
STARTCHAR paragraph
ENCODING 182
SWIDTH 636 0
DWIDTH 11 0
BBX 7 16 3 -3
BITMAP
7E
F2
F2
F2
F2
74
34
24
24
24
24
24
28
48
48
48
ENDCHAR
STARTCHAR periodcentered
ENCODING 183
SWIDTH 636 0
DWIDTH 11 0
BBX 2 2 5 4
BITMAP
C0
C0
ENDCHAR
STARTCHAR cedilla
ENCODING 184
SWIDTH 599 0
DWIDTH 10 0
BBX 3 3 3 -3
BITMAP
60
20
E0
ENDCHAR
STARTCHAR onesuperior
ENCODING 185
SWIDTH 381 0
DWIDTH 6 0
BBX 4 8 -11 5
BITMAP
70
30
30
20
20
20
60
F0
ENDCHAR
STARTCHAR ordmasculine
ENCODING 186
SWIDTH 468 0
DWIDTH 8 0
BBX 8 8 2 5
BITMAP
1E
26
67
C6
C6
C6
CC
78
ENDCHAR
STARTCHAR guillemotright
ENCODING 187
SWIDTH 527 0
DWIDTH 9 0
BBX 9 9 1 0
BITMAP
6200
2600
3300
3B00
1B80
3300
6600
CC00
8800
ENDCHAR
STARTCHAR onequarter
ENCODING 188
SWIDTH 818 0
DWIDTH 14 0
BBX 14 13 3 0
BITMAP
700C
3010
3030
2060
20C0
2198
6338
F650
0C90
19F8
3030
2030
C070
ENDCHAR
STARTCHAR onehalf
ENCODING 189
SWIDTH 818 0
DWIDTH 14 0
BBX 14 13 3 0
BITMAP
700C
3010
3030
2060
20C0
21F0
6388
F608
0C18
1820
30C0
2080
C1F0
ENDCHAR
STARTCHAR threequarters
ENCODING 190
SWIDTH 818 0
DWIDTH 14 0
BBX 14 13 3 0
BITMAP
380C
4810
0830
7060
18C0
0998
9B38
F650
0C90
19F8
3030
2030
C070
ENDCHAR
STARTCHAR questiondown
ENCODING 191
SWIDTH 493 0
DWIDTH 8 0
BBX 7 12 1 -3
BITMAP
06
0E
00
0C
0C
18
10
60
E0
C2
E6
7C
ENDCHAR
STARTCHAR Agrave
ENCODING 192
SWIDTH 765 0
DWIDTH 13 0
BBX 13 16 0 0
BITMAP
0180
0040
0000
00C0
01C0
01C0
02C0
02C0
04E0
08E0
0860
1FE0
1070
2070
4070
F0F8
ENDCHAR
STARTCHAR Aacute
ENCODING 193
SWIDTH 765 0
DWIDTH 13 0
BBX 13 16 0 0
BITMAP
0070
0180
0000
00C0
01C0
01C0
02C0
02C0
04E0
08E0
0860
1FE0
1070
2070
4070
F0F8
ENDCHAR
STARTCHAR Acircumflex
ENCODING 194
SWIDTH 765 0
DWIDTH 13 0
BBX 13 16 0 0
BITMAP
00E0
0330
0000
00C0
01C0
01C0
02C0
02C0
04E0
08E0
0860
1FE0
1070
2070
4070
F0F8
ENDCHAR
STARTCHAR Atilde
ENCODING 195
SWIDTH 765 0
DWIDTH 13 0
BBX 13 16 0 0
BITMAP
01D0
02E0
0000
00C0
01C0
01C0
02C0
02C0
04E0
08E0
0860
1FE0
1070
2070
4070
F0F8
ENDCHAR
STARTCHAR Adieresis
ENCODING 196
SWIDTH 765 0
DWIDTH 13 0
BBX 13 15 0 0
BITMAP
01B0
0000
00C0
01C0
01C0
02C0
02C0
04E0
08E0
0860
1FE0
1070
2070
4070
F0F8
ENDCHAR
STARTCHAR Aring
ENCODING 197
SWIDTH 765 0
DWIDTH 13 0
BBX 13 17 0 0
BITMAP
00E0
00A0
00E0
0000
00C0
01C0
01C0
02C0
02C0
04E0
08E0
0860
1FE0
1070
2070
4070
F0F8
ENDCHAR
STARTCHAR AE
ENCODING 198
SWIDTH 958 0
DWIDTH 16 0
BBX 18 13 0 0
BITMAP
003FC0
0078C0
00B000
013000
017100
027F00
046100
086000
0FE000
10E000
20E000
60E100
E3FF00
ENDCHAR
STARTCHAR Ccedilla
ENCODING 199
SWIDTH 740 0
DWIDTH 13 0
BBX 12 16 2 -3
BITMAP
07F0
1C30
3830
3030
6000
6000
E000
E000
E000
E000
6000
70C0
1F80
1000
0800
3800
ENDCHAR
STARTCHAR Egrave
ENCODING 200
SWIDTH 630 0
DWIDTH 11 0
BBX 11 16 1 0
BITMAP
0600
0100
0000
3FE0
1C60
1C00
1C00
1800
1880
3F80
3880
3800
3000
3000
7080
FF80
ENDCHAR
STARTCHAR Eacute
ENCODING 201
SWIDTH 630 0
DWIDTH 11 0
BBX 11 16 1 0
BITMAP
01C0
0600
0000
3FE0
1C60
1C00
1C00
1800
1880
3F80
3880
3800
3000
3000
7080
FF80
ENDCHAR
STARTCHAR Ecircumflex
ENCODING 202
SWIDTH 630 0
DWIDTH 11 0
BBX 11 16 1 0
BITMAP
0380
0CC0
0000
3FE0
1C60
1C00
1C00
1800
1880
3F80
3880
3800
3000
3000
7080
FF80
ENDCHAR
STARTCHAR Edieresis
ENCODING 203
SWIDTH 630 0
DWIDTH 11 0
BBX 11 15 1 0
BITMAP
06C0
0000
3FE0
1C60
1C00
1C00
1800
1880
3F80
3880
3800
3000
3000
7080
FF80
ENDCHAR
STARTCHAR Igrave
ENCODING 204
SWIDTH 372 0
DWIDTH 6 0
BBX 8 16 0 0
BITMAP
0C
02
00
3F
0E
0C
1C
1C
1C
18
18
38
38
38
70
FC
ENDCHAR
STARTCHAR Iacute
ENCODING 205
SWIDTH 372 0
DWIDTH 6 0
BBX 9 16 0 0
BITMAP
0380
0C00
0000
3F00
0E00
0C00
1C00
1C00
1C00
1800
1800
3800
3800
3800
7000
FC00
ENDCHAR
STARTCHAR Icircumflex
ENCODING 206
SWIDTH 372 0
DWIDTH 6 0
BBX 8 16 0 0
BITMAP
0E
33
00
3F
0E
0C
1C
1C
1C
18
18
38
38
38
70
FC
ENDCHAR
STARTCHAR Idieresis
ENCODING 207
SWIDTH 372 0
DWIDTH 6 0
BBX 8 15 0 0
BITMAP
1B
00
3F
0E
0C
1C
1C
1C
18
18
38
38
38
70
FC
ENDCHAR
STARTCHAR Eth
ENCODING 208
SWIDTH 822 0
DWIDTH 14 0
BBX 14 13 1 0
BITMAP
3FF0
1C38
1C1C
1C1C
1C1C
181C
7F1C
381C
3818
3838
3070
70E0
FF80
ENDCHAR
STARTCHAR Ntilde
ENCODING 209
SWIDTH 797 0
DWIDTH 14 0
BBX 15 16 0 0
BITMAP
01D0
02E0
0000
3C1E
1C0C
1E08
1608
1708
1318
1390
3190
21D0
20D0
20F0
6060
F060
ENDCHAR
STARTCHAR Ograve
ENCODING 210
SWIDTH 831 0
DWIDTH 14 0
BBX 13 16 2 0
BITMAP
0300
0080
0000
07C0
0C70
3830
3038
7038
6038
E038
E030
E070
E060
E0C0
7180
3E00
ENDCHAR
STARTCHAR Oacute
ENCODING 211
SWIDTH 831 0
DWIDTH 14 0
BBX 13 16 2 0
BITMAP
00E0
0300
0000
07C0
0C70
3830
3038
7038
6038
E038
E030
E070
E060
E0C0
7180
3E00
ENDCHAR
STARTCHAR Ocircumflex
ENCODING 212
SWIDTH 831 0
DWIDTH 14 0
BBX 13 16 2 0
BITMAP
01C0
0660
0000
07C0
0C70
3830
3038
7038
6038
E038
E030
E070
E060
E0C0
7180
3E00
ENDCHAR
STARTCHAR Otilde
ENCODING 213
SWIDTH 831 0
DWIDTH 14 0
BBX 13 16 2 0
BITMAP
03A0
05C0
0000
07C0
0C70
3830
3038
7038
6038
E038
E030
E070
E060
E0C0
7180
3E00
ENDCHAR
STARTCHAR Odieresis
ENCODING 214
SWIDTH 831 0
DWIDTH 14 0
BBX 13 15 2 0
BITMAP
06C0
0000
07C0
0C70
3830
3038
7038
6038
E038
E030
E070
E060
E0C0
7180
3E00
ENDCHAR
STARTCHAR multiply
ENCODING 215
SWIDTH 636 0
DWIDTH 11 0
BBX 11 11 1 0
BITMAP
2020
3040
1080
1900
0E00
0400
0E00
1300
2100
4180
8080
ENDCHAR
STARTCHAR Oslash
ENCODING 216
SWIDTH 831 0
DWIDTH 14 0
BBX 15 13 1 0
BITMAP
03F6
063C
1C1C
183C
305C
309C
711C
7218
7418
7830
7070
38C0
CF80
ENDCHAR
STARTCHAR Ugrave
ENCODING 217
SWIDTH 775 0
DWIDTH 13 0
BBX 13 16 3 0
BITMAP
0600
0100
0000
FC78
7020
7020
7020
6040
6040
E040
E040
E040
E080
E080
6100
3E00
ENDCHAR
STARTCHAR Uacute
ENCODING 218
SWIDTH 775 0
DWIDTH 13 0
BBX 13 16 3 0
BITMAP
01C0
0600
0000
FC78
7020
7020
7020
6040
6040
E040
E040
E040
E080
E080
6100
3E00
ENDCHAR
STARTCHAR Ucircumflex
ENCODING 219
SWIDTH 775 0
DWIDTH 13 0
BBX 13 16 3 0
BITMAP
0380
0CC0
0000
FC78
7020
7020
7020
6040
6040
E040
E040
E040
E080
E080
6100
3E00
ENDCHAR
STARTCHAR Udieresis
ENCODING 220
SWIDTH 775 0
DWIDTH 13 0
BBX 13 15 3 0
BITMAP
0D80
0000
FC78
7020
7020
7020
6040
6040
E040
E040
E040
E080
E080
6100
3E00
ENDCHAR
STARTCHAR Yacute
ENCODING 221
SWIDTH 669 0
DWIDTH 11 0
BBX 12 16 2 0
BITMAP
01C0
0600
0000
F870
7060
7040
3880
3900
1A00
1E00
1C00
1C00
1800
1800
3800
7E00
ENDCHAR
STARTCHAR Thorn
ENCODING 222
SWIDTH 628 0
DWIDTH 11 0
BBX 11 13 1 0
BITMAP
3F00
1C00
1C00
1FC0
18E0
18E0
18E0
38C0
39C0
3F00
3000
7000
F800
ENDCHAR
STARTCHAR germandbls
ENCODING 223
SWIDTH 656 0
DWIDTH 11 0
BBX 10 16 1 -3
BITMAP
0780
1DC0
19C0
1980
3900
3A00
3700
3380
31C0
71C0
60C0
64C0
6F80
6000
E000
C000
ENDCHAR
STARTCHAR agrave
ENCODING 224
SWIDTH 634 0
DWIDTH 11 0
BBX 10 12 1 0
BITMAP
0600
0100
0000
0FC0
11C0
3180
6180
E380
E780
EF80
FB80
63C0
ENDCHAR
STARTCHAR aacute
ENCODING 225
SWIDTH 634 0
DWIDTH 11 0
BBX 10 12 1 0
BITMAP
01C0
0600
0000
0FC0
11C0
3180
6180
E380
E780
EF80
FB80
63C0
ENDCHAR
STARTCHAR acircumflex
ENCODING 226
SWIDTH 634 0
DWIDTH 11 0
BBX 10 12 1 0
BITMAP
0380
0CC0
0000
0FC0
11C0
3180
6180
E380
E780
EF80
FB80
63C0
ENDCHAR
STARTCHAR atilde
ENCODING 227
SWIDTH 634 0
DWIDTH 11 0
BBX 10 12 1 0
BITMAP
0740
0B80
0000
0FC0
11C0
3180
6180
E380
E780
EF80
FB80
63C0
ENDCHAR
STARTCHAR adieresis
ENCODING 228
SWIDTH 634 0
DWIDTH 11 0
BBX 10 11 1 0
BITMAP
0D80
0000
0FC0
11C0
3180
6180
E380
E780
EF80
FB80
63C0
ENDCHAR
STARTCHAR aring
ENCODING 229
SWIDTH 634 0
DWIDTH 11 0
BBX 10 13 1 0
BITMAP
0380
0280
0380
0000
0FC0
11C0
3180
6180
E380
E780
EF80
FB80
63C0
ENDCHAR
STARTCHAR ae
ENCODING 230
SWIDTH 905 0
DWIDTH 15 0
BBX 14 9 1 0
BITMAP
0FB8
11CC
318C
618C
6398
E7E0
E700
EB8C
71F8
ENDCHAR
STARTCHAR ccedilla
ENCODING 231
SWIDTH 524 0
DWIDTH 9 0
BBX 9 12 1 -3
BITMAP
0F80
3100
6100
6000
E000
E000
E000
E100
7E00
2000
1000
7000
ENDCHAR
STARTCHAR egrave
ENCODING 232
SWIDTH 548 0
DWIDTH 9 0
BBX 8 12 1 0
BITMAP
0C
02
00
0E
33
63
63
E6
FC
E0
E1
7E
ENDCHAR
STARTCHAR eacute
ENCODING 233
SWIDTH 548 0
DWIDTH 9 0
BBX 9 12 1 0
BITMAP
0380
0C00
0000
0E00
3300
6300
6300
E600
FC00
E000
E100
7E00
ENDCHAR
STARTCHAR ecircumflex
ENCODING 234
SWIDTH 548 0
DWIDTH 9 0
BBX 9 12 1 0
BITMAP
0700
1980
0000
0E00
3300
6300
6300
E600
FC00
E000
E100
7E00
ENDCHAR
STARTCHAR edieresis
ENCODING 235
SWIDTH 548 0
DWIDTH 9 0
BBX 8 11 1 0
BITMAP
1B
00
0E
33
63
63
E6
FC
E0
E1
7E
ENDCHAR
STARTCHAR igrave
ENCODING 236
SWIDTH 319 0
DWIDTH 5 0
BBX 5 12 2 0
BITMAP
30
08
00
F0
70
70
60
60
60
E0
E0
F0
ENDCHAR
STARTCHAR iacute
ENCODING 237
SWIDTH 319 0
DWIDTH 5 0
BBX 7 12 2 0
BITMAP
0E
30
00
F0
70
70
60
60
60
E0
E0
F0
ENDCHAR
STARTCHAR icircumflex
ENCODING 238
SWIDTH 319 0
DWIDTH 5 0
BBX 6 12 2 0
BITMAP
38
CC
00
F0
70
70
60
60
60
E0
E0
F0
ENDCHAR
STARTCHAR idieresis
ENCODING 239
SWIDTH 319 0
DWIDTH 5 0
BBX 6 11 2 0
BITMAP
6C
00
F0
70
70
60
60
60
E0
E0
F0
ENDCHAR
STARTCHAR eth
ENCODING 240
SWIDTH 617 0
DWIDTH 10 0
BBX 9 13 1 0
BITMAP
3F00
0E00
0B00
1380
0F80
3380
6180
6180
E180
E180
E300
E600
7C00
ENDCHAR
STARTCHAR ntilde
ENCODING 241
SWIDTH 656 0
DWIDTH 11 0
BBX 10 12 1 0
BITMAP
0740
0B80
0000
F380
35C0
79C0
79C0
7180
6180
6380
E380
E3C0
ENDCHAR
STARTCHAR ograve
ENCODING 242
SWIDTH 599 0
DWIDTH 10 0
BBX 9 12 1 0
BITMAP
0600
0100
0000
0F00
3180
7180
6180
E180
E380
E300
E600
7C00
ENDCHAR
STARTCHAR oacute
ENCODING 243
SWIDTH 599 0
DWIDTH 10 0
BBX 10 12 1 0
BITMAP
01C0
0600
0000
0F00
3180
7180
6180
E180
E380
E300
E600
7C00
ENDCHAR
STARTCHAR ocircumflex
ENCODING 244
SWIDTH 599 0
DWIDTH 10 0
BBX 9 12 1 0
BITMAP
0700
1980
0000
0F00
3180
7180
6180
E180
E380
E300
E600
7C00
ENDCHAR
STARTCHAR otilde
ENCODING 245
SWIDTH 599 0
DWIDTH 10 0
BBX 9 12 1 0
BITMAP
0E80
1700
0000
0F00
3180
7180
6180
E180
E380
E300
E600
7C00
ENDCHAR
STARTCHAR odieresis
ENCODING 246
SWIDTH 599 0
DWIDTH 10 0
BBX 9 11 1 0
BITMAP
0D80
0000
0F00
3180
7180
6180
E180
E380
E300
E600
7C00
ENDCHAR
STARTCHAR divide
ENCODING 247
SWIDTH 636 0
DWIDTH 11 0
BBX 10 9 1 0
BITMAP
0600
0400
0000
0000
FFC0
0000
0000
1800
1800
ENDCHAR
STARTCHAR oslash
ENCODING 248
SWIDTH 599 0
DWIDTH 10 0
BBX 11 9 1 0
BITMAP
07E0
19C0
31C0
72C0
64C0
6980
7180
7300
FC00
ENDCHAR
STARTCHAR ugrave
ENCODING 249
SWIDTH 655 0
DWIDTH 11 0
BBX 10 12 2 0
BITMAP
0600
0100
0000
F3C0
71C0
7180
6180
6380
E780
E780
FB00
E3C0
ENDCHAR
STARTCHAR uacute
ENCODING 250
SWIDTH 655 0
DWIDTH 11 0
BBX 10 12 2 0
BITMAP
01C0
0600
0000
F3C0
71C0
7180
6180
6380
E780
E780
FB00
E3C0
ENDCHAR
STARTCHAR ucircumflex
ENCODING 251
SWIDTH 655 0
DWIDTH 11 0
BBX 10 12 2 0
BITMAP
0700
1980
0000
F3C0
71C0
7180
6180
6380
E780
E780
FB00
E3C0
ENDCHAR
STARTCHAR udieresis
ENCODING 252
SWIDTH 655 0
DWIDTH 11 0
BBX 10 11 2 0
BITMAP
0D80
0000
F3C0
71C0
7180
6180
6380
E780
E780
FB00
E3C0
ENDCHAR
STARTCHAR yacute
ENCODING 253
SWIDTH 586 0
DWIDTH 10 0
BBX 12 15 0 -3
BITMAP
00E0
0300
0000
3870
1C30
1C20
0C60
0CC0
0F80
0F00
0600
0400
0800
1000
F000
ENDCHAR
STARTCHAR thorn
ENCODING 254
SWIDTH 639 0
DWIDTH 11 0
BBX 11 16 1 -3
BITMAP
7C00
3800
1800
1800
39C0
3AE0
3CE0
38E0
38E0
70C0
7180
7100
7E00
6000
E000
E000
ENDCHAR
STARTCHAR ydieresis
ENCODING 255
SWIDTH 586 0
DWIDTH 10 0
BBX 12 14 0 -3
BITMAP
0360
0000
3870
1C30
1C20
0C60
0CC0
0F80
0F00
0600
0400
0800
1000
F000
ENDCHAR
STARTCHAR Amacron
ENCODING 256
SWIDTH 765 0
DWIDTH 13 0
BBX 13 15 0 0
BITMAP
07C0
0000
00C0
01C0
01C0
02C0
02C0
04E0
08E0
0860
1FE0
1070
2070
4070
F0F8
ENDCHAR
STARTCHAR amacron
ENCODING 257
SWIDTH 634 0
DWIDTH 11 0
BBX 10 11 1 0
BITMAP
0F80
0000
0FC0
11C0
3180
6180
E380
E780
EF80
FB80
63C0
ENDCHAR
STARTCHAR Abreve
ENCODING 258
SWIDTH 765 0
DWIDTH 13 0
BBX 13 16 0 0
BITMAP
0420
03C0
0000
00C0
01C0
01C0
02C0
02C0
04E0
08E0
0860
1FE0
1070
2070
4070
F0F8
ENDCHAR
STARTCHAR abreve
ENCODING 259
SWIDTH 634 0
DWIDTH 11 0
BBX 10 12 1 0
BITMAP
1080
0F00
0000
0FC0
11C0
3180
6180
E380
E780
EF80
FB80
63C0
ENDCHAR
STARTCHAR Aogonek
ENCODING 260
SWIDTH 765 0
DWIDTH 13 0
BBX 13 16 0 -3
BITMAP
00C0
01C0
01C0
02C0
02C0
04E0
08E0
0860
1FE0
1070
2070
4070
F0F8
0000
0100
0380
ENDCHAR
STARTCHAR aogonek
ENCODING 261
SWIDTH 634 0
DWIDTH 11 0
BBX 10 12 1 -3
BITMAP
0FC0
11C0
3180
6180
E380
E780
EF80
FB80
63C0
0000
0800
1C00
ENDCHAR
STARTCHAR Cacute
ENCODING 262
SWIDTH 740 0
DWIDTH 13 0
BBX 12 16 2 0
BITMAP
01C0
0600
0000
07F0
1C30
3830
3030
6000
6000
E000
E000
E000
E000
6000
70C0
1F80
ENDCHAR
STARTCHAR cacute
ENCODING 263
SWIDTH 524 0
DWIDTH 9 0
BBX 9 12 1 0
BITMAP
0700
1800
0000
0F80
3100
6100
6000
E000
E000
E000
E100
7E00
ENDCHAR
STARTCHAR Ccircumflex
ENCODING 264
SWIDTH 740 0
DWIDTH 13 0
BBX 12 16 2 0
BITMAP
0380
0CC0
0000
07F0
1C30
3830
3030
6000
6000
E000
E000
E000
E000
6000
70C0
1F80
ENDCHAR
STARTCHAR ccircumflex
ENCODING 265
SWIDTH 524 0
DWIDTH 9 0
BBX 9 12 1 0
BITMAP
0E00
3300
0000
0F80
3100
6100
6000
E000
E000
E000
E100
7E00
ENDCHAR
STARTCHAR Cdotaccent
ENCODING 266
SWIDTH 740 0
DWIDTH 13 0
BBX 12 16 2 0
BITMAP
0300
0300
0000
07F0
1C30
3830
3030
6000
6000
E000
E000
E000
E000
6000
70C0
1F80
ENDCHAR
STARTCHAR cdotaccent
ENCODING 267
SWIDTH 524 0
DWIDTH 9 0
BBX 9 12 1 0
BITMAP
0C00
0C00
0000
0F80
3100
6100
6000
E000
E000
E000
E100
7E00
ENDCHAR
STARTCHAR Ccaron
ENCODING 268
SWIDTH 740 0
DWIDTH 13 0
BBX 12 16 2 0
BITMAP
0CC0
0700
0000
07F0
1C30
3830
3030
6000
6000
E000
E000
E000
E000
6000
70C0
1F80
ENDCHAR
STARTCHAR ccaron
ENCODING 269
SWIDTH 524 0
DWIDTH 9 0
BBX 9 12 1 0
BITMAP
3300
1C00
0000
0F80
3100
6100
6000
E000
E000
E000
E100
7E00
ENDCHAR
STARTCHAR Dcaron
ENCODING 270
SWIDTH 822 0
DWIDTH 14 0
BBX 14 16 1 0
BITMAP
0660
0380
0000
3FF0
1C38
1C1C
1C1C
1C1C
181C
181C
381C
3818
3838
3070
70E0
FF80
ENDCHAR
STARTCHAR dcaron
ENCODING 271
SWIDTH 867 0
DWIDTH 14 0
BBX 15 13 1 0
BITMAP
01EE
00EE
00CE
00C4
0FCC
11D8
31C0
6180
6380
E380
E780
EB80
73C0
ENDCHAR
STARTCHAR Dcroat
ENCODING 272
SWIDTH 822 0
DWIDTH 14 0
BBX 14 13 1 0
BITMAP
3FF0
1C38
1C1C
1C1C
1C1C
181C
7F1C
381C
3818
3838
3070
70E0
FF80
ENDCHAR
STARTCHAR dcroat
ENCODING 273
SWIDTH 634 0
DWIDTH 11 0
BBX 12 13 1 0
BITMAP
01E0
00E0
0FF0
00C0
0FC0
11C0
31C0
6180
6380
E380
E780
EB80
73C0
ENDCHAR
STARTCHAR Emacron
ENCODING 274
SWIDTH 630 0
DWIDTH 11 0
BBX 11 15 1 0
BITMAP
1F00
0000
3FE0
1C60
1C00
1C00
1800
1880
3F80
3880
3800
3000
3000
7080
FF80
ENDCHAR
STARTCHAR emacron
ENCODING 275
SWIDTH 548 0
DWIDTH 9 0
BBX 8 11 1 0
BITMAP
3E
00
0E
33
63
63
E6
FC
E0
E1
7E
ENDCHAR
STARTCHAR Ebreve
ENCODING 276
SWIDTH 630 0
DWIDTH 11 0
BBX 11 16 1 0
BITMAP
1080
0F00
0000
3FE0
1C60
1C00
1C00
1800
1880
3F80
3880
3800
3000
3000
7080
FF80
ENDCHAR
STARTCHAR ebreve
ENCODING 277
SWIDTH 548 0
DWIDTH 9 0
BBX 8 12 1 0
BITMAP
21
1E
00
0E
33
63
63
E6
FC
E0
E1
7E
ENDCHAR
STARTCHAR Edotaccent
ENCODING 278
SWIDTH 630 0
DWIDTH 11 0
BBX 11 16 1 0
BITMAP
0600
0600
0000
3FE0
1C60
1C00
1C00
1800
1880
3F80
3880
3800
3000
3000
7080
FF80
ENDCHAR
STARTCHAR edotaccent
ENCODING 279
SWIDTH 548 0
DWIDTH 9 0
BBX 8 12 1 0
BITMAP
0C
0C
00
0E
33
63
63
E6
FC
E0
E1
7E
ENDCHAR
STARTCHAR Eogonek
ENCODING 280
SWIDTH 630 0
DWIDTH 11 0
BBX 11 16 1 -3
BITMAP
3FE0
1C60
1C00
1C00
1800
1880
3F80
3880
3800
3000
3000
7080
FF80
0000
0800
1C00
ENDCHAR
STARTCHAR eogonek
ENCODING 281
SWIDTH 548 0
DWIDTH 9 0
BBX 8 12 1 -3
BITMAP
0E
33
63
63
E6
FC
E0
E1
7E
00
10
38
ENDCHAR
STARTCHAR Ecaron
ENCODING 282
SWIDTH 630 0
DWIDTH 11 0
BBX 11 16 1 0
BITMAP
1980
0E00
0000
3FE0
1C60
1C00
1C00
1800
1880
3F80
3880
3800
3000
3000
7080
FF80
ENDCHAR
STARTCHAR ecaron
ENCODING 283
SWIDTH 548 0
DWIDTH 9 0
BBX 8 12 1 0
BITMAP
33
1C
00
0E
33
63
63
E6
FC
E0
E1
7E
ENDCHAR
STARTCHAR Gcircumflex
ENCODING 284
SWIDTH 780 0
DWIDTH 13 0
BBX 12 16 2 0
BITMAP
0380
0CC0
0000
07F0
1C30
3830
3000
7000
6000
E000
E1F0
E0E0
E0C0
60C0
71C0
1F80
ENDCHAR
STARTCHAR gcircumflex
ENCODING 285
SWIDTH 628 0
DWIDTH 11 0
BBX 10 15 1 -3
BITMAP
0700
1980
0000
07C0
19C0
31C0
7180
6380
6380
6780
6B80
7300
8300
C600
FC00
ENDCHAR
STARTCHAR Gbreve
ENCODING 286
SWIDTH 780 0
DWIDTH 13 0
BBX 12 16 2 0
BITMAP
0840
0780
0000
07F0
1C30
3830
3000
7000
6000
E000
E1F0
E0E0
E0C0
60C0
71C0
1F80
ENDCHAR
STARTCHAR gbreve
ENCODING 287
SWIDTH 628 0
DWIDTH 11 0
BBX 10 15 1 -3
BITMAP
1080
0F00
0000
07C0
19C0
31C0
7180
6380
6380
6780
6B80
7300
8300
C600
FC00
ENDCHAR
STARTCHAR Gdotaccent
ENCODING 288
SWIDTH 780 0
DWIDTH 13 0
BBX 12 16 2 0
BITMAP
0300
0300
0000
07F0
1C30
3830
3000
7000
6000
E000
E1F0
E0E0
E0C0
60C0
71C0
1F80
ENDCHAR
STARTCHAR gdotaccent
ENCODING 289
SWIDTH 628 0
DWIDTH 11 0
BBX 10 15 1 -3
BITMAP
0600
0600
0000
07C0
19C0
31C0
7180
6380
6380
6780
6B80
7300
8300
C600
FC00
ENDCHAR
STARTCHAR Gcommaaccent
ENCODING 290
SWIDTH 780 0
DWIDTH 13 0
BBX 12 20 2 -7
BITMAP
07F0
1C30
3830
3000
7000
6000
E000
E1F0
E0E0
E0C0
60C0
71C0
1F80
0000
0E00
0E00
0E00
0400
0C00
1800
ENDCHAR
STARTCHAR gcommaaccent
ENCODING 291
SWIDTH 628 0
DWIDTH 11 0
BBX 10 19 1 -3
BITMAP
0300
0600
0400
0E00
0E00
0E00
0000
07C0
19C0
31C0
7180
6380
6380
6780
6B80
7300
8300
C600
FC00
ENDCHAR
STARTCHAR Hcircumflex
ENCODING 292
SWIDTH 827 0
DWIDTH 14 0
BBX 15 16 1 0
BITMAP
01C0
0660
0000
3F3E
1C1C
1C18
1C18
1838
1838
1FF0
3830
3830
3070
3070
7070
F9F8
ENDCHAR
STARTCHAR hcircumflex
ENCODING 293
SWIDTH 656 0
DWIDTH 11 0
BBX 10 16 1 0
BITMAP
1C00
6600
0000
7800
3800
3800
3800
3180
37C0
79C0
79C0
7180
6180
6380
E380
E3C0
ENDCHAR
STARTCHAR Hbar
ENCODING 294
SWIDTH 827 0
DWIDTH 14 0
BBX 15 13 1 0
BITMAP
3F3E
1C1C
1C18
FFFE
1838
1838
1FF0
3830
3830
3070
3070
7070
F9F8
ENDCHAR
STARTCHAR hbar
ENCODING 295
SWIDTH 656 0
DWIDTH 11 0
BBX 11 13 0 0
BITMAP
3C00
1C00
FF00
1C00
18C0
1BE0
3CE0
3CE0
38C0
30C0
31C0
71C0
71E0
ENDCHAR
STARTCHAR Itilde
ENCODING 296
SWIDTH 372 0
DWIDTH 6 0
BBX 8 16 0 0
BITMAP
1D
2E
00
3F
0E
0C
1C
1C
1C
18
18
38
38
38
70
FC
ENDCHAR
STARTCHAR itilde
ENCODING 297
SWIDTH 319 0
DWIDTH 5 0
BBX 6 12 1 0
BITMAP
74
B8
00
78
38
38
30
30
30
70
70
78
ENDCHAR
STARTCHAR Imacron
ENCODING 298
SWIDTH 372 0
DWIDTH 6 0
BBX 8 15 0 0
BITMAP
3E
00
3F
0E
0C
1C
1C
1C
18
18
38
38
38
70
FC
ENDCHAR
STARTCHAR imacron
ENCODING 299
SWIDTH 319 0
DWIDTH 5 0
BBX 5 11 2 0
BITMAP
F8
00
F0
70
70
60
60
60
E0
E0
F0
ENDCHAR
STARTCHAR Ibreve
ENCODING 300
SWIDTH 372 0
DWIDTH 6 0
BBX 8 16 0 0
BITMAP
21
1E
00
3F
0E
0C
1C
1C
1C
18
18
38
38
38
70
FC
ENDCHAR
STARTCHAR ibreve
ENCODING 301
SWIDTH 319 0
DWIDTH 5 0
BBX 6 12 1 0
BITMAP
84
78
00
78
38
38
30
30
30
70
70
78
ENDCHAR
STARTCHAR Iogonek
ENCODING 302
SWIDTH 372 0
DWIDTH 6 0
BBX 8 16 0 -3
BITMAP
3F
0E
0C
1C
1C
1C
18
18
38
38
38
70
FC
00
10
38
ENDCHAR
STARTCHAR iogonek
ENCODING 303
SWIDTH 319 0
DWIDTH 5 0
BBX 5 16 2 -3
BITMAP
38
38
00
00
F0
70
70
70
60
60
E0
E0
F0
00
20
70
ENDCHAR
STARTCHAR Idotaccent
ENCODING 304
SWIDTH 372 0
DWIDTH 6 0
BBX 8 16 0 0
BITMAP
0C
0C
00
3F
0E
0C
1C
1C
1C
18
18
38
38
38
70
FC
ENDCHAR
STARTCHAR dotlessi
ENCODING 305
SWIDTH 319 0
DWIDTH 5 0
BBX 4 9 2 0
BITMAP
F0
70
70
60
60
60
E0
E0
F0
ENDCHAR
STARTCHAR IJ
ENCODING 306
SWIDTH 831 0
DWIDTH 14 0
BBX 16 16 0 -3
BITMAP
3F1F
0E0E
0C0C
1C0C
1C1C
1C1C
181C
1818
3818
3818
3838
7038
FC38
0330
0360
03C0
ENDCHAR
STARTCHAR ij
ENCODING 307
SWIDTH 684 0
DWIDTH 11 0
BBX 12 17 2 -4
BITMAP
3830
3870
0000
0000
F1E0
70E0
70E0
70E0
60C0
60C0
E0C0
E1C0
F1C0
0180
1980
1B00
1E00
ENDCHAR
STARTCHAR Jcircumflex
ENCODING 308
SWIDTH 478 0
DWIDTH 8 0
BBX 10 19 0 -3
BITMAP
0700
1980
0000
07C0
0380
0300
0300
0700
0700
0700
0600
0600
0600
0E00
0E00
0E00
CC00
D800
F000
ENDCHAR
STARTCHAR jcircumflex
ENCODING 309
SWIDTH 381 0
DWIDTH 6 0
BBX 9 16 0 -4
BITMAP
0700
1980
0000
0F00
0700
0700
0700
0600
0600
0600
0E00
0E00
0C00
CC00
D800
F000
ENDCHAR
STARTCHAR Kcommaaccent
ENCODING 310
SWIDTH 746 0
DWIDTH 13 0
BBX 13 20 1 -7
BITMAP
3E38
1C30
1C40
1880
1900
1A00
1F00
3F00
3B80
31C0
31C0
70E0
F9F0
0000
0700
0700
0700
0200
0600
0C00
ENDCHAR
STARTCHAR kcommaaccent
ENCODING 311
SWIDTH 626 0
DWIDTH 11 0
BBX 9 20 2 -7
BITMAP
7800
3800
3000
3000
3380
7380
7700
6E00
7C00
6C00
EE00
E700
C380
0000
1C00
1C00
1C00
0800
1800
3000
ENDCHAR
STARTCHAR kgreenlandic
ENCODING 312
SWIDTH 626 0
DWIDTH 11 0
BBX 9 9 2 0
BITMAP
3380
7380
7700
6E00
7C00
6C00
EE00
E700
C380
ENDCHAR
STARTCHAR Lacute
ENCODING 313
SWIDTH 611 0
DWIDTH 10 0
BBX 10 16 1 0
BITMAP
0700
1800
0000
3F00
1C00
1C00
1C00
1C00
1800
1800
3800
3800
3800
3040
70C0
FF80
ENDCHAR
STARTCHAR lacute
ENCODING 314
SWIDTH 319 0
DWIDTH 5 0
BBX 7 16 1 0
BITMAP
0E
30
00
78
38
38
30
30
70
70
70
60
60
E0
E0
F0
ENDCHAR
STARTCHAR Lcommaaccent
ENCODING 315
SWIDTH 611 0
DWIDTH 10 0
BBX 10 20 1 -7
BITMAP
3F00
1C00
1C00
1C00
1C00
1800
1800
3800
3800
3800
3040
70C0
FF80
0000
1C00
1C00
1C00
0800
1800
3000
ENDCHAR
STARTCHAR lcommaaccent
ENCODING 316
SWIDTH 319 0
DWIDTH 5 0
BBX 5 20 1 -7
BITMAP
78
38
38
30
30
70
70
70
60
60
E0
E0
F0
00
70
70
70
20
60
C0
ENDCHAR
STARTCHAR Lcaron
ENCODING 317
SWIDTH 845 0
DWIDTH 14 0
BBX 15 13 1 0
BITMAP
3F0E
1C0E
1C0E
1C04
1C0C
1818
1800
3800
3800
3800
3040
70C0
FF80
ENDCHAR
STARTCHAR lcaron
ENCODING 318
SWIDTH 568 0
DWIDTH 9 0
BBX 10 13 1 0
BITMAP
79C0
39C0
39C0
3080
3180
7300
7000
7000
6000
6000
E000
E000
F000
ENDCHAR
STARTCHAR Ldot
ENCODING 319
SWIDTH 1216 0
DWIDTH 21 0
BBX 16 13 1 0
BITMAP
3F00
1C00
1C00
1C00
1C00
1800
1800
3803
3803
3800
3040
70C0
FF80
ENDCHAR
STARTCHAR ldot
ENCODING 320
SWIDTH 939 0
DWIDTH 16 0
BBX 11 13 1 0
BITMAP
7800
3800
3800
3000
3000
7000
7000
7060
6060
6000
E000
E000
F000
ENDCHAR
STARTCHAR Lslash
ENCODING 321
SWIDTH 611 0
DWIDTH 10 0
BBX 10 13 1 0
BITMAP
3F00
1C00
1C00
1C00
1C00
1E00
7800
7800
3800
3800
3040
70C0
FFC0
ENDCHAR
STARTCHAR lslash
ENCODING 322
SWIDTH 319 0
DWIDTH 5 0
BBX 6 13 1 0
BITMAP
38
18
18
38
30
3C
30
F0
70
70
60
60
70
ENDCHAR
STARTCHAR Nacute
ENCODING 323
SWIDTH 797 0
DWIDTH 14 0
BBX 15 16 0 0
BITMAP
00E0
0300
0000
3C1E
1C0C
1E08
1608
1708
1318
1390
3190
21D0
20D0
20F0
6060
F060
ENDCHAR
STARTCHAR nacute
ENCODING 324
SWIDTH 656 0
DWIDTH 11 0
BBX 10 12 1 0
BITMAP
0380
0C00
0000
F380
35C0
79C0
79C0
7180
6180
6380
E380
E3C0
ENDCHAR
STARTCHAR Ncommaaccent
ENCODING 325
SWIDTH 797 0
DWIDTH 14 0
BBX 15 20 0 -7
BITMAP
3C1E
1C0C
1E08
1608
1708
1318
1390
3190
21D0
20D0
20F0
6060
F060
0000
0380
0380
0380
0100
0300
0600
ENDCHAR
STARTCHAR ncommaaccent
ENCODING 326
SWIDTH 656 0
DWIDTH 11 0
BBX 10 16 1 -7
BITMAP
F380
35C0
79C0
79C0
7180
6180
6380
E380
E3C0
0000
0E00
0E00
0E00
0400
0C00
1800
ENDCHAR
STARTCHAR Ncaron
ENCODING 327
SWIDTH 797 0
DWIDTH 14 0
BBX 15 16 0 0
BITMAP
0660
0380
0000
3C1E
1C0C
1E08
1608
1708
1318
1390
3190
21D0
20D0
20F0
6060
F060
ENDCHAR
STARTCHAR ncaron
ENCODING 328
SWIDTH 656 0
DWIDTH 11 0
BBX 10 12 1 0
BITMAP
1980
0E00
0000
F380
35C0
79C0
79C0
7180
6180
6380
E380
E3C0
ENDCHAR
STARTCHAR napostrophe
ENCODING 329
SWIDTH 908 0
DWIDTH 15 0
BBX 13 13 2 0
BITMAP
7000
7000
7000
2000
7E70
C6B8
0F38
0F38
0E30
0C30
0C70
1C70
1C78
ENDCHAR
STARTCHAR Eng
ENCODING 330
SWIDTH 797 0
DWIDTH 14 0
BBX 15 17 0 -4
BITMAP
3C1E
1C0C
1E08
1608
1708
1318
1390
3190
21D0
20F0
20F0
6070
F070
0060
0660
06C0
0780
ENDCHAR
STARTCHAR eng
ENCODING 331
SWIDTH 656 0
DWIDTH 11 0
BBX 10 13 1 -4
BITMAP
F380
35C0
79C0
79C0
7180
6180
6180
E380
E380
0300
3300
3600
3C00
ENDCHAR
STARTCHAR Omacron
ENCODING 332
SWIDTH 831 0
DWIDTH 14 0
BBX 13 15 2 0
BITMAP
07C0
0000
07C0
0C70
3830
3038
7038
6038
E038
E030
E070
E060
E0C0
7180
3E00
ENDCHAR
STARTCHAR omacron
ENCODING 333
SWIDTH 599 0
DWIDTH 10 0
BBX 9 11 1 0
BITMAP
1F00
0000
0F00
3180
7180
6180
E180
E380
E300
E600
7C00
ENDCHAR
STARTCHAR Obreve
ENCODING 334
SWIDTH 831 0
DWIDTH 14 0
BBX 13 16 2 0
BITMAP
0840
0780
0000
07C0
0C70
3830
3038
7038
6038
E038
E030
E070
E060
E0C0
7180
3E00
ENDCHAR
STARTCHAR obreve
ENCODING 335
SWIDTH 599 0
DWIDTH 10 0
BBX 9 12 1 0
BITMAP
2100
1E00
0000
0F00
3180
7180
6180
E180
E380
E300
E600
7C00
ENDCHAR
STARTCHAR Ohungarumlaut
ENCODING 336
SWIDTH 831 0
DWIDTH 14 0
BBX 13 16 2 0
BITMAP
03E0
0580
0000
07C0
0C70
3830
3038
7038
6038
E038
E030
E070
E060
E0C0
7180
3E00
ENDCHAR
STARTCHAR ohungarumlaut
ENCODING 337
SWIDTH 599 0
DWIDTH 10 0
BBX 9 12 1 0
BITMAP
0F80
1600
0000
0F00
3180
7180
6180
E180
E380
E300
E600
7C00
ENDCHAR
STARTCHAR OE
ENCODING 338
SWIDTH 1067 0
DWIDTH 18 0
BBX 18 13 2 0
BITMAP
07FFC0
0C78C0
3870C0
307000
607000
607100
E07F00
E06100
E0E000
E0E000
60E000
71E100
1FFF00
ENDCHAR
STARTCHAR oe
ENCODING 339
SWIDTH 921 0
DWIDTH 16 0
BBX 15 9 1 0
BITMAP
0F3C
31CC
61CE
618C
E198
E1F0
E380
E786
7CF8
ENDCHAR
STARTCHAR Racute
ENCODING 340
SWIDTH 711 0
DWIDTH 12 0
BBX 12 16 0 0
BITMAP
01C0
0600
0000
3FE0
0C70
1C70
1C70
1C60
18E0
1F80
3B80
3980
39C0
30C0
70E0
F870
ENDCHAR
STARTCHAR racute
ENCODING 341
SWIDTH 496 0
DWIDTH 8 0
BBX 9 12 1 0
BITMAP
0700
1800
0000
F180
3700
7C00
7800
7000
6000
6000
E000
E000
ENDCHAR
STARTCHAR Rcommaaccent
ENCODING 342
SWIDTH 711 0
DWIDTH 12 0
BBX 12 20 0 -7
BITMAP
3FE0
0C70
1C70
1C70
1C60
18E0
1F80
3B80
3980
39C0
30C0
70E0
F870
0000
0700
0700
0700
0200
0600
0C00
ENDCHAR
STARTCHAR rcommaaccent
ENCODING 343
SWIDTH 496 0
DWIDTH 8 0
BBX 9 16 1 -7
BITMAP
F180
3700
7C00
7800
7000
6000
6000
E000
E000
0000
7000
7000
7000
2000
6000
C000
ENDCHAR
STARTCHAR Rcaron
ENCODING 344
SWIDTH 711 0
DWIDTH 12 0
BBX 12 16 0 0
BITMAP
0CC0
0700
0000
3FE0
0C70
1C70
1C70
1C60
18E0
1F80
3B80
3980
39C0
30C0
70E0
F870
ENDCHAR
STARTCHAR rcaron
ENCODING 345
SWIDTH 496 0
DWIDTH 8 0
BBX 9 12 1 0
BITMAP
3300
1C00
0000
F180
3700
7C00
7800
7000
6000
6000
E000
E000
ENDCHAR
STARTCHAR Sacute
ENCODING 346
SWIDTH 587 0
DWIDTH 10 0
BBX 10 16 1 0
BITMAP
0380
0C00
0000
0FC0
18C0
30C0
3000
3800
3C00
1E00
0700
0380
0380
C380
C700
FC00
ENDCHAR
STARTCHAR sacute
ENCODING 347
SWIDTH 479 0
DWIDTH 8 0
BBX 8 12 1 0
BITMAP
07
18
00
1F
31
33
38
1C
0E
86
CE
FC
ENDCHAR
STARTCHAR Scircumflex
ENCODING 348
SWIDTH 587 0
DWIDTH 10 0
BBX 10 16 1 0
BITMAP
0700
1980
0000
0FC0
18C0
30C0
3000
3800
3C00
1E00
0700
0380
0380
C380
C700
FC00
ENDCHAR
STARTCHAR scircumflex
ENCODING 349
SWIDTH 479 0
DWIDTH 8 0
BBX 8 12 1 0
BITMAP
0E
33
00
1F
31
33
38
1C
0E
86
CE
FC
ENDCHAR
STARTCHAR Scedilla
ENCODING 350
SWIDTH 587 0
DWIDTH 10 0
BBX 10 16 1 -3
BITMAP
0FC0
18C0
30C0
3000
3800
3C00
1E00
0700
0380
0380
C380
C700
FC00
0C00
0400
1C00
ENDCHAR
STARTCHAR scedilla
ENCODING 351
SWIDTH 479 0
DWIDTH 8 0
BBX 8 12 1 -3
BITMAP
1F
31
33
38
1C
0E
86
CE
FC
18
08
38
ENDCHAR
STARTCHAR Scaron
ENCODING 352
SWIDTH 587 0
DWIDTH 10 0
BBX 10 16 1 0
BITMAP
0CC0
0700
0000
0FC0
18C0
30C0
3000
3800
3C00
1E00
0700
0380
0380
C380
C700
FC00
ENDCHAR
STARTCHAR scaron
ENCODING 353
SWIDTH 479 0
DWIDTH 8 0
BBX 9 12 1 0
BITMAP
1980
0E00
0000
1F00
3100
3300
3800
1C00
0E00
8600
CE00
FC00
ENDCHAR
STARTCHAR Tcommaaccent
ENCODING 354
SWIDTH 716 0
DWIDTH 12 0
BBX 12 16 2 -3
BITMAP
FFF0
C630
8630
0E00
0E00
0C00
0C00
0C00
1C00
1C00
1C00
1800
7E00
0C00
0400
1C00
ENDCHAR
STARTCHAR tcommaaccent
ENCODING 355
SWIDTH 375 0
DWIDTH 6 0
BBX 6 15 2 -3
BITMAP
30
30
30
FC
70
60
60
60
E0
E0
E0
70
60
20
E0
ENDCHAR
STARTCHAR Tcaron
ENCODING 356
SWIDTH 716 0
DWIDTH 12 0
BBX 12 16 2 0
BITMAP
1980
0E00
0000
FFF0
C630
8630
0E00
0E00
0C00
0C00
0C00
1C00
1C00
1C00
1800
7E00
ENDCHAR
STARTCHAR tcaron
ENCODING 357
SWIDTH 621 0
DWIDTH 10 0
BBX 10 13 2 0
BITMAP
01C0
31C0
31C0
3080
FD80
7300
6000
6000
6000
E000
E000
E000
7000
ENDCHAR
STARTCHAR Tbar
ENCODING 358
SWIDTH 716 0
DWIDTH 12 0
BBX 12 13 2 0
BITMAP
FFF0
C630
8630
0E00
0E00
0C00
3FC0
0C00
1C00
1C00
1C00
1800
7E00
ENDCHAR
STARTCHAR tbar
ENCODING 359
SWIDTH 375 0
DWIDTH 6 0
BBX 8 12 1 0
BITMAP
18
18
18
7E
38
30
30
FF
70
70
70
38
ENDCHAR
STARTCHAR Utilde
ENCODING 360
SWIDTH 775 0
DWIDTH 13 0
BBX 13 16 3 0
BITMAP
0E80
1700
0000
FC78
7020
7020
7020
6040
6040
E040
E040
E040
E080
E080
6100
3E00
ENDCHAR
STARTCHAR utilde
ENCODING 361
SWIDTH 655 0
DWIDTH 11 0
BBX 10 12 2 0
BITMAP
1D00
2E00
0000
F3C0
71C0
7180
6180
6380
E780
E780
FB00
E3C0
ENDCHAR
STARTCHAR Umacron
ENCODING 362
SWIDTH 775 0
DWIDTH 13 0
BBX 13 15 3 0
BITMAP
1F00
0000
FC78
7020
7020
7020
6040
6040
E040
E040
E040
E080
E080
6100
3E00
ENDCHAR
STARTCHAR umacron
ENCODING 363
SWIDTH 655 0
DWIDTH 11 0
BBX 10 11 2 0
BITMAP
1F00
0000
F3C0
71C0
7180
6180
6380
E780
E780
FB00
E3C0
ENDCHAR
STARTCHAR Ubreve
ENCODING 364
SWIDTH 775 0
DWIDTH 13 0
BBX 13 16 3 0
BITMAP
1080
0F00
0000
FC78
7020
7020
7020
6040
6040
E040
E040
E040
E080
E080
6100
3E00
ENDCHAR
STARTCHAR ubreve
ENCODING 365
SWIDTH 655 0
DWIDTH 11 0
BBX 10 12 2 0
BITMAP
2100
1E00
0000
F3C0
71C0
7180
6180
6380
E780
E780
FB00
E3C0
ENDCHAR
STARTCHAR Uring
ENCODING 366
SWIDTH 775 0
DWIDTH 13 0
BBX 13 17 3 0
BITMAP
0E00
0A00
0E00
0000
FC78
7020
7020
7020
6040
6040
E040
E040
E040
E080
E080
6100
3E00
ENDCHAR
STARTCHAR uring
ENCODING 367
SWIDTH 655 0
DWIDTH 11 0
BBX 10 13 2 0
BITMAP
0E00
0A00
0E00
0000
F3C0
71C0
7180
6180
6380
E780
E780
FB00
E3C0
ENDCHAR
STARTCHAR Uhungarumlaut
ENCODING 368
SWIDTH 775 0
DWIDTH 13 0
BBX 13 16 3 0
BITMAP
0F80
1600
0000
FC78
7020
7020
7020
6040
6040
E040
E040
E040
E080
E080
6100
3E00
ENDCHAR
STARTCHAR uhungarumlaut
ENCODING 369
SWIDTH 655 0
DWIDTH 11 0
BBX 10 12 2 0
BITMAP
0F80
1600
0000
F3C0
71C0
7180
6180
6380
E780
E780
FB00
E3C0
ENDCHAR
STARTCHAR Uogonek
ENCODING 370
SWIDTH 775 0
DWIDTH 13 0
BBX 13 16 3 -3
BITMAP
FC78
7020
7020
7020
6040
6040
E040
E040
E040
E080
E080
6100
3E00
0000
0800
1C00
ENDCHAR
STARTCHAR uogonek
ENCODING 371
SWIDTH 655 0
DWIDTH 11 0
BBX 10 12 2 -3
BITMAP
F3C0
71C0
7180
6180
6380
E780
E780
FB00
E3C0
0000
0800
1C00
ENDCHAR
STARTCHAR Wcircumflex
ENCODING 372
SWIDTH 922 0
DWIDTH 16 0
BBX 16 16 2 0
BITMAP
0380
0CC0
0000
F087
6182
6184
6384
6388
75C8
75D0
75D0
78E0
78E0
30C0
30C0
2080
ENDCHAR
STARTCHAR wcircumflex
ENCODING 373
SWIDTH 822 0
DWIDTH 14 0
BBX 14 12 1 0
BITMAP
0380
0CC0
0000
E11C
710C
3388
3390
35B0
3DA0
39C0
31C0
3080
ENDCHAR
STARTCHAR Ycircumflex
ENCODING 374
SWIDTH 669 0
DWIDTH 11 0
BBX 12 16 2 0
BITMAP
0E00
3300
0000
F870
7060
7040
3880
3900
1A00
1E00
1C00
1C00
1800
1800
3800
7E00
ENDCHAR
STARTCHAR ycircumflex
ENCODING 375
SWIDTH 586 0
DWIDTH 10 0
BBX 12 15 0 -3
BITMAP
0380
0CC0
0000
3870
1C30
1C20
0C60
0CC0
0F80
0F00
0600
0400
0800
1000
F000
ENDCHAR
STARTCHAR Ydieresis
ENCODING 376
SWIDTH 669 0
DWIDTH 11 0
BBX 12 15 2 0
BITMAP
0D80
0000
F870
7060
7040
3880
3900
1A00
1E00
1C00
1C00
1800
1800
3800
7E00
ENDCHAR
STARTCHAR Zacute
ENCODING 377
SWIDTH 684 0
DWIDTH 12 0
BBX 12 16 1 0
BITMAP
00E0
0300
0000
1FF0
10E0
10E0
01C0
0380
0700
0E00
0E00
1C00
3800
7040
70C0
FFC0
ENDCHAR
STARTCHAR zacute
ENCODING 378
SWIDTH 567 0
DWIDTH 10 0
BBX 10 12 1 0
BITMAP
0380
0C00
0000
3FC0
2180
2300
0600
0C00
1800
3880
7180
FF80
ENDCHAR
STARTCHAR Zdotaccent
ENCODING 379
SWIDTH 684 0
DWIDTH 12 0
BBX 12 16 1 0
BITMAP
0300
0300
0000
1FF0
10E0
10E0
01C0
0380
0700
0E00
0E00
1C00
3800
7040
70C0
FFC0
ENDCHAR
STARTCHAR zdotaccent
ENCODING 380
SWIDTH 567 0
DWIDTH 10 0
BBX 10 12 1 0
BITMAP
0600
0600
0000
3FC0
2180
2300
0600
0C00
1800
3880
7180
FF80
ENDCHAR
STARTCHAR Zcaron
ENCODING 381
SWIDTH 684 0
DWIDTH 12 0
BBX 12 16 1 0
BITMAP
0660
0380
0000
1FF0
10E0
10E0
01C0
0380
0700
0E00
0E00
1C00
3800
7040
70C0
FFC0
ENDCHAR
STARTCHAR zcaron
ENCODING 382
SWIDTH 567 0
DWIDTH 10 0
BBX 10 12 1 0
BITMAP
0CC0
0700
0000
3FC0
2180
2300
0600
0C00
1800
3880
7180
FF80
ENDCHAR
STARTCHAR uni0186
ENCODING 390
SWIDTH 740 0
DWIDTH 13 0
BBX 12 13 2 0
BITMAP
1F80
30E0
0060
0070
0070
0070
0070
0060
0060
C0C0
C1C0
C380
FE00
ENDCHAR
STARTCHAR uni0189
ENCODING 393
SWIDTH 822 0
DWIDTH 14 0
BBX 14 13 1 0
BITMAP
3FF0
1C38
1C1C
1C1C
1C1C
181C
7F1C
381C
3818
3838
3070
70E0
FF80
ENDCHAR
STARTCHAR uni018E
ENCODING 398
SWIDTH 630 0
DWIDTH 11 0
BBX 11 13 1 0
BITMAP
3FE0
21C0
0180
0180
0380
2380
3F80
2300
0300
0700
0700
C700
FF80
ENDCHAR
STARTCHAR florin
ENCODING 402
SWIDTH 636 0
DWIDTH 11 0
BBX 9 16 3 -3
BITMAP
0780
0D80
1980
3800
3800
3000
FC00
3000
7000
7000
7000
6000
6000
E000
E000
E000
ENDCHAR
STARTCHAR uni0197
ENCODING 407
SWIDTH 372 0
DWIDTH 6 0
BBX 8 13 0 0
BITMAP
3F
0E
0C
1C
1C
1C
FF
18
38
38
38
70
FC
ENDCHAR
STARTCHAR uni019A
ENCODING 410
SWIDTH 319 0
DWIDTH 5 0
BBX 8 13 0 0
BITMAP
3C
1C
1C
18
18
38
FF
38
30
30
70
70
78
ENDCHAR
STARTCHAR uni019D
ENCODING 413
SWIDTH 797 0
DWIDTH 14 0
BBX 18 17 -3 -4
BITMAP
0783C0
038180
03C100
02C100
02E100
026300
027200
063200
043A00
061A00
061E00
0E0C00
0E0C00
0C0000
CC0000
D80000
F00000
ENDCHAR
STARTCHAR uni019F
ENCODING 415
SWIDTH 831 0
DWIDTH 14 0
BBX 13 13 2 0
BITMAP
07C0
0C70
3830
3038
7038
6038
FFF8
E030
E070
E060
E0C0
7180
3E00
ENDCHAR
STARTCHAR Ohorn
ENCODING 416
SWIDTH 831 0
DWIDTH 14 0
BBX 16 13 2 0
BITMAP
07C7
0C77
3837
303A
703E
603C
E038
E030
E070
E060
E0C0
7180
3E00
ENDCHAR
STARTCHAR ohorn
ENCODING 417
SWIDTH 599 0
DWIDTH 10 0
BBX 12 9 1 0
BITMAP
0F70
31F0
71F0
61A0
E1E0
E3C0
E300
E600
7C00
ENDCHAR
STARTCHAR Uhorn
ENCODING 431
SWIDTH 775 0
DWIDTH 13 0
BBX 16 13 3 0
BITMAP
FC7F
7027
7027
7022
6046
604C
E040
E040
E040
E080
E080
6100
3E00
ENDCHAR
STARTCHAR uhorn
ENCODING 432
SWIDTH 655 0
DWIDTH 11 0
BBX 13 9 2 0
BITMAP
F3F8
71F8
71B8
6190
63B0
E7E0
E780
FB00
E3C0
ENDCHAR
STARTCHAR uni01B5
ENCODING 437
SWIDTH 684 0
DWIDTH 12 0
BBX 12 13 1 0
BITMAP
1FF0
10E0
10E0
01C0
0380
0700
3FC0
0E00
1C00
3800
7040
70C0
FFC0
ENDCHAR
STARTCHAR uni01B6
ENCODING 438
SWIDTH 567 0
DWIDTH 10 0
BBX 10 9 1 0
BITMAP
3FC0
2180
2300
0600
7F80
1800
3880
7180
FF80
ENDCHAR
STARTCHAR uni01BB
ENCODING 443
SWIDTH 636 0
DWIDTH 11 0
BBX 10 13 1 0
BITMAP
1F00
31C0
21C0
01C0
01C0
0380
FFC0
0C00
1000
2000
6000
FF00
FF00
ENDCHAR
STARTCHAR uni01BC
ENCODING 444
SWIDTH 636 0
DWIDTH 11 0
BBX 10 13 2 0
BITMAP
1FC0
3FC0
2000
2000
2000
3C00
0700
0300
0300
0380
C300
C600
F800
ENDCHAR
STARTCHAR uni01C0
ENCODING 448
SWIDTH 253 0
DWIDTH 4 0
BBX 4 16 1 -3
BITMAP
10
30
30
20
20
20
20
60
60
40
40
40
40
C0
C0
80
ENDCHAR
STARTCHAR uni01C2
ENCODING 450
SWIDTH 636 0
DWIDTH 11 0
BBX 11 16 1 -3
BITMAP
0100
0300
0300
0200
0200
0200
7FE0
0600
0600
0400
FFC0
0400
0400
0C00
0C00
0800
ENDCHAR
STARTCHAR uni01C3
ENCODING 451
SWIDTH 265 0
DWIDTH 4 0
BBX 5 13 1 0
BITMAP
38
38
38
30
30
30
20
60
60
00
00
E0
E0
ENDCHAR
STARTCHAR uni01CD
ENCODING 461
SWIDTH 765 0
DWIDTH 13 0
BBX 13 16 0 0
BITMAP
0660
0380
0000
00C0
01C0
01C0
02C0
02C0
04E0
08E0
0860
1FE0
1070
2070
4070
F0F8
ENDCHAR
STARTCHAR uni01CE
ENCODING 462
SWIDTH 634 0
DWIDTH 11 0
BBX 10 12 1 0
BITMAP
1980
0E00
0000
0FC0
11C0
3180
6180
E380
E780
EF80
FB80
63C0
ENDCHAR
STARTCHAR uni01CF
ENCODING 463
SWIDTH 372 0
DWIDTH 6 0
BBX 8 16 0 0
BITMAP
33
1C
00
3F
0E
0C
1C
1C
1C
18
18
38
38
38
70
FC
ENDCHAR
STARTCHAR uni01D0
ENCODING 464
SWIDTH 319 0
DWIDTH 5 0
BBX 6 12 2 0
BITMAP
CC
70
00
F0
70
70
60
60
60
E0
E0
F0
ENDCHAR
STARTCHAR uni01D1
ENCODING 465
SWIDTH 831 0
DWIDTH 14 0
BBX 13 16 2 0
BITMAP
0660
0380
0000
07C0
0C70
3830
3038
7038
6038
E038
E030
E070
E060
E0C0
7180
3E00
ENDCHAR
STARTCHAR uni01D2
ENCODING 466
SWIDTH 599 0
DWIDTH 10 0
BBX 9 12 1 0
BITMAP
3300
1C00
0000
0F00
3180
7180
6180
E180
E380
E300
E600
7C00
ENDCHAR
STARTCHAR uni01D3
ENCODING 467
SWIDTH 775 0
DWIDTH 13 0
BBX 13 16 3 0
BITMAP
1980
0E00
0000
FC78
7020
7020
7020
6040
6040
E040
E040
E040
E080
E080
6100
3E00
ENDCHAR
STARTCHAR uni01D4
ENCODING 468
SWIDTH 655 0
DWIDTH 11 0
BBX 10 12 2 0
BITMAP
3300
1C00
0000
F3C0
71C0
7180
6180
6380
E780
E780
FB00
E3C0
ENDCHAR
STARTCHAR uni01D5
ENCODING 469
SWIDTH 775 0
DWIDTH 13 0
BBX 13 17 3 0
BITMAP
0F80
0000
0D80
0000
FC78
7020
7020
7020
6040
6040
E040
E040
E040
E080
E080
6100
3E00
ENDCHAR
STARTCHAR uni01D6
ENCODING 470
SWIDTH 655 0
DWIDTH 11 0
BBX 10 13 2 0
BITMAP
1F00
0000
0D80
0000
F3C0
71C0
7180
6180
6380
E780
E780
FB00
E3C0
ENDCHAR
STARTCHAR uni01D7
ENCODING 471
SWIDTH 775 0
DWIDTH 13 0
BBX 13 18 3 0
BITMAP
01C0
0600
0000
0D80
0000
FC78
7020
7020
7020
6040
6040
E040
E040
E040
E080
E080
6100
3E00
ENDCHAR
STARTCHAR uni01D8
ENCODING 472
SWIDTH 655 0
DWIDTH 11 0
BBX 10 14 2 0
BITMAP
0380
0C00
0000
0D80
0000
F3C0
71C0
7180
6180
6380
E780
E780
FB00
E3C0
ENDCHAR
STARTCHAR uni01D9
ENCODING 473
SWIDTH 775 0
DWIDTH 13 0
BBX 13 18 3 0
BITMAP
1980
0E00
0000
0D80
0000
FC78
7020
7020
7020
6040
6040
E040
E040
E040
E080
E080
6100
3E00
ENDCHAR
STARTCHAR uni01DA
ENCODING 474
SWIDTH 655 0
DWIDTH 11 0
BBX 10 14 2 0
BITMAP
1980
0E00
0000
0D80
0000
F3C0
71C0
7180
6180
6380
E780
E780
FB00
E3C0
ENDCHAR
STARTCHAR uni01DB
ENCODING 475
SWIDTH 775 0
DWIDTH 13 0
BBX 13 18 3 0
BITMAP
0C00
0200
0000
0D80
0000
FC78
7020
7020
7020
6040
6040
E040
E040
E040
E080
E080
6100
3E00
ENDCHAR
STARTCHAR uni01DC
ENCODING 476
SWIDTH 655 0
DWIDTH 11 0
BBX 10 14 2 0
BITMAP
1800
0400
0000
0D80
0000
F3C0
71C0
7180
6180
6380
E780
E780
FB00
E3C0
ENDCHAR
STARTCHAR uni01DD
ENCODING 477
SWIDTH 548 0
DWIDTH 9 0
BBX 8 9 1 0
BITMAP
7E
87
07
3F
67
C6
C6
CC
70
ENDCHAR
STARTCHAR uni01DE
ENCODING 478
SWIDTH 765 0
DWIDTH 13 0
BBX 13 17 0 0
BITMAP
03E0
0000
01B0
0000
00C0
01C0
01C0
02C0
02C0
04E0
08E0
0860
1FE0
1070
2070
4070
F0F8
ENDCHAR
STARTCHAR uni01DF
ENCODING 479
SWIDTH 634 0
DWIDTH 11 0
BBX 10 13 1 0
BITMAP
0F80
0000
0D80
0000
0FC0
11C0
3180
6180
E380
E780
EF80
FB80
63C0
ENDCHAR
STARTCHAR uni01E0
ENCODING 480
SWIDTH 765 0
DWIDTH 13 0
BBX 13 18 0 0
BITMAP
07C0
0000
0180
0180
0000
00C0
01C0
01C0
02C0
02C0
04E0
08E0
0860
1FE0
1070
2070
4070
F0F8
ENDCHAR
STARTCHAR uni01E1
ENCODING 481
SWIDTH 634 0
DWIDTH 11 0
BBX 10 14 1 0
BITMAP
0F80
0000
0600
0600
0000
0FC0
11C0
3180
6180
E380
E780
EF80
FB80
63C0
ENDCHAR
STARTCHAR uni01E2
ENCODING 482
SWIDTH 958 0
DWIDTH 16 0
BBX 18 15 0 0
BITMAP
007C00
000000
003FC0
0078C0
00B000
013000
017100
027F00
046100
086000
0FE000
10E000
20E000
60E100
E3FF00
ENDCHAR
STARTCHAR uni01E3
ENCODING 483
SWIDTH 905 0
DWIDTH 15 0
BBX 14 11 1 0
BITMAP
03E0
0000
0FB8
11CC
318C
618C
6398
E7E0
E700
EB8C
71F8
ENDCHAR
STARTCHAR uni01E4
ENCODING 484
SWIDTH 780 0
DWIDTH 13 0
BBX 14 13 2 0
BITMAP
07F0
1C30
3830
3000
7000
6000
E000
E1F0
E0E0
E3FC
60C0
71C0
1F80
ENDCHAR
STARTCHAR uni01E5
ENCODING 485
SWIDTH 628 0
DWIDTH 11 0
BBX 10 12 1 -3
BITMAP
07C0
19C0
31C0
7180
6380
6380
6780
6B80
7300
FFC0
C600
FC00
ENDCHAR
STARTCHAR Gcaron
ENCODING 486
SWIDTH 780 0
DWIDTH 13 0
BBX 12 16 2 0
BITMAP
0CC0
0700
0000
07F0
1C30
3830
3000
7000
6000
E000
E1F0
E0E0
E0C0
60C0
71C0
1F80
ENDCHAR
STARTCHAR gcaron
ENCODING 487
SWIDTH 628 0
DWIDTH 11 0
BBX 10 15 1 -3
BITMAP
1980
0E00
0000
07C0
19C0
31C0
7180
6380
6380
6780
6B80
7300
8300
C600
FC00
ENDCHAR
STARTCHAR uni01E8
ENCODING 488
SWIDTH 746 0
DWIDTH 13 0
BBX 13 16 1 0
BITMAP
0CC0
0700
0000
3E38
1C30
1C40
1880
1900
1A00
1F00
3F00
3B80
31C0
31C0
70E0
F9F0
ENDCHAR
STARTCHAR uni01E9
ENCODING 489
SWIDTH 626 0
DWIDTH 11 0
BBX 9 16 2 0
BITMAP
6600
3800
0000
7800
3800
3000
3000
3380
7380
7700
6E00
7C00
6C00
EE00
E700
C380
ENDCHAR
STARTCHAR uni01EA
ENCODING 490
SWIDTH 831 0
DWIDTH 14 0
BBX 13 16 2 -3
BITMAP
07C0
0C70
3830
3038
7038
6038
E038
E030
E070
E060
E0C0
7180
3E00
0000
0400
0E00
ENDCHAR
STARTCHAR uni01EB
ENCODING 491
SWIDTH 599 0
DWIDTH 10 0
BBX 9 12 1 -3
BITMAP
0F00
3180
7180
6180
E180
E380
E300
E600
7C00
0000
1000
3800
ENDCHAR
STARTCHAR uni01EC
ENCODING 492
SWIDTH 831 0
DWIDTH 14 0
BBX 13 18 2 -3
BITMAP
07C0
0000
07C0
0C70
3830
3038
7038
6038
E038
E030
E070
E060
E0C0
7180
3E00
0000
0400
0E00
ENDCHAR
STARTCHAR uni01ED
ENCODING 493
SWIDTH 599 0
DWIDTH 10 0
BBX 9 14 1 -3
BITMAP
1F00
0000
0F00
3180
7180
6180
E180
E380
E300
E600
7C00
0000
1000
3800
ENDCHAR
STARTCHAR uni01F0
ENCODING 496
SWIDTH 381 0
DWIDTH 6 0
BBX 9 16 0 -4
BITMAP
1980
0E00
0000
0F00
0700
0700
0700
0600
0600
0600
0E00
0E00
0C00
CC00
D800
F000
ENDCHAR
STARTCHAR uni01F4
ENCODING 500
SWIDTH 780 0
DWIDTH 13 0
BBX 12 16 2 0
BITMAP
01C0
0600
0000
07F0
1C30
3830
3000
7000
6000
E000
E1F0
E0E0
E0C0
60C0
71C0
1F80
ENDCHAR
STARTCHAR uni01F5
ENCODING 501
SWIDTH 628 0
DWIDTH 11 0
BBX 10 15 1 -3
BITMAP
0380
0C00
0000
07C0
19C0
31C0
7180
6380
6380
6780
6B80
7300
8300
C600
FC00
ENDCHAR
STARTCHAR uni01F8
ENCODING 504
SWIDTH 797 0
DWIDTH 14 0
BBX 15 16 0 0
BITMAP
0600
0100
0000
3C1E
1C0C
1E08
1608
1708
1318
1390
3190
21D0
20D0
20F0
6060
F060
ENDCHAR
STARTCHAR uni01F9
ENCODING 505
SWIDTH 656 0
DWIDTH 11 0
BBX 10 12 1 0
BITMAP
1800
0400
0000
F380
35C0
79C0
79C0
7180
6180
6380
E380
E3C0
ENDCHAR
STARTCHAR Aringacute
ENCODING 506
SWIDTH 765 0
DWIDTH 13 0
BBX 13 20 0 0
BITMAP
0070
0180
0000
00E0
00A0
00E0
0000
00C0
01C0
01C0
02C0
02C0
04E0
08E0
0860
1FE0
1070
2070
4070
F0F8
ENDCHAR
STARTCHAR aringacute
ENCODING 507
SWIDTH 634 0
DWIDTH 11 0
BBX 10 16 1 0
BITMAP
01C0
0600
0000
0380
0280
0380
0000
0FC0
11C0
3180
6180
E380
E780
EF80
FB80
63C0
ENDCHAR
STARTCHAR AEacute
ENCODING 508
SWIDTH 958 0
DWIDTH 16 0
BBX 18 16 0 0
BITMAP
000E00
003000
000000
003FC0
0078C0
00B000
013000
017100
027F00
046100
086000
0FE000
10E000
20E000
60E100
E3FF00
ENDCHAR
STARTCHAR aeacute
ENCODING 509
SWIDTH 905 0
DWIDTH 15 0
BBX 14 12 1 0
BITMAP
0070
0180
0000
0FB8
11CC
318C
618C
6398
E7E0
E700
EB8C
71F8
ENDCHAR
STARTCHAR Oslashacute
ENCODING 510
SWIDTH 831 0
DWIDTH 14 0
BBX 15 16 1 0
BITMAP
0070
0180
0000
03F6
063C
1C1C
183C
305C
309C
711C
7218
7418
7830
7070
38C0
CF80
ENDCHAR
STARTCHAR oslashacute
ENCODING 511
SWIDTH 599 0
DWIDTH 10 0
BBX 11 12 1 0
BITMAP
01C0
0600
0000
07E0
19C0
31C0
72C0
64C0
6980
7180
7300
FC00
ENDCHAR
STARTCHAR Scommaaccent
ENCODING 536
SWIDTH 587 0
DWIDTH 10 0
BBX 10 20 1 -7
BITMAP
0FC0
18C0
30C0
3000
3800
3C00
1E00
0700
0380
0380
C380
C700
FC00
0000
1C00
1C00
1C00
0800
1800
3000
ENDCHAR
STARTCHAR scommaaccent
ENCODING 537
SWIDTH 479 0
DWIDTH 8 0
BBX 8 16 1 -7
BITMAP
1F
31
33
38
1C
0E
86
CE
FC
00
38
38
38
10
30
60
ENDCHAR
STARTCHAR Tcommaaccent
ENCODING 538
SWIDTH 716 0
DWIDTH 12 0
BBX 12 20 2 -7
BITMAP
FFF0
C630
8630
0E00
0E00
0C00
0C00
0C00
1C00
1C00
1C00
1800
7E00
0000
1C00
1C00
1C00
0800
1800
3000
ENDCHAR
STARTCHAR tcommaaccent
ENCODING 539
SWIDTH 375 0
DWIDTH 6 0
BBX 6 19 2 -7
BITMAP
30
30
30
FC
70
60
60
60
E0
E0
E0
70
00
70
70
70
20
60
C0
ENDCHAR
STARTCHAR uni021E
ENCODING 542
SWIDTH 827 0
DWIDTH 14 0
BBX 15 16 1 0
BITMAP
0660
0380
0000
3F3E
1C1C
1C18
1C18
1838
1838
1FF0
3830
3830
3070
3070
7070
F9F8
ENDCHAR
STARTCHAR uni021F
ENCODING 543
SWIDTH 656 0
DWIDTH 11 0
BBX 10 16 1 0
BITMAP
6600
3800
0000
7800
3800
3800
3800
3180
37C0
79C0
79C0
7180
6180
6380
E380
E3C0
ENDCHAR
STARTCHAR uni0226
ENCODING 550
SWIDTH 765 0
DWIDTH 13 0
BBX 13 16 0 0
BITMAP
0180
0180
0000
00C0
01C0
01C0
02C0
02C0
04E0
08E0
0860
1FE0
1070
2070
4070
F0F8
ENDCHAR
STARTCHAR uni0227
ENCODING 551
SWIDTH 634 0
DWIDTH 11 0
BBX 10 12 1 0
BITMAP
0600
0600
0000
0FC0
11C0
3180
6180
E380
E780
EF80
FB80
63C0
ENDCHAR
STARTCHAR uni0228
ENCODING 552
SWIDTH 630 0
DWIDTH 11 0
BBX 11 16 1 -3
BITMAP
3FE0
1C60
1C00
1C00
1800
1880
3F80
3880
3800
3000
3000
7080
FF80
0C00
0400
1C00
ENDCHAR
STARTCHAR uni0229
ENCODING 553
SWIDTH 548 0
DWIDTH 9 0
BBX 8 12 1 -3
BITMAP
0E
33
63
63
E6
FC
E0
E1
7E
18
08
38
ENDCHAR
STARTCHAR uni022A
ENCODING 554
SWIDTH 831 0
DWIDTH 14 0
BBX 13 17 2 0
BITMAP
07C0
0000
06C0
0000
07C0
0C70
3830
3038
7038
6038
E038
E030
E070
E060
E0C0
7180
3E00
ENDCHAR
STARTCHAR uni022B
ENCODING 555
SWIDTH 599 0
DWIDTH 10 0
BBX 9 13 1 0
BITMAP
1F00
0000
0D80
0000
0F00
3180
7180
6180
E180
E380
E300
E600
7C00
ENDCHAR
STARTCHAR uni022C
ENCODING 556
SWIDTH 831 0
DWIDTH 14 0
BBX 13 18 2 0
BITMAP
07C0
0000
03A0
05C0
0000
07C0
0C70
3830
3038
7038
6038
E038
E030
E070
E060
E0C0
7180
3E00
ENDCHAR
STARTCHAR uni022D
ENCODING 557
SWIDTH 599 0
DWIDTH 10 0
BBX 9 14 1 0
BITMAP
1F00
0000
0E80
1700
0000
0F00
3180
7180
6180
E180
E380
E300
E600
7C00
ENDCHAR
STARTCHAR uni022E
ENCODING 558
SWIDTH 831 0
DWIDTH 14 0
BBX 13 16 2 0
BITMAP
0300
0300
0000
07C0
0C70
3830
3038
7038
6038
E038
E030
E070
E060
E0C0
7180
3E00
ENDCHAR
STARTCHAR uni022F
ENCODING 559
SWIDTH 599 0
DWIDTH 10 0
BBX 9 12 1 0
BITMAP
0C00
0C00
0000
0F00
3180
7180
6180
E180
E380
E300
E600
7C00
ENDCHAR
STARTCHAR uni0230
ENCODING 560
SWIDTH 831 0
DWIDTH 14 0
BBX 13 18 2 0
BITMAP
07C0
0000
0300
0300
0000
07C0
0C70
3830
3038
7038
6038
E038
E030
E070
E060
E0C0
7180
3E00
ENDCHAR
STARTCHAR uni0231
ENCODING 561
SWIDTH 599 0
DWIDTH 10 0
BBX 9 14 1 0
BITMAP
1F00
0000
0C00
0C00
0000
0F00
3180
7180
6180
E180
E380
E300
E600
7C00
ENDCHAR
STARTCHAR uni0232
ENCODING 562
SWIDTH 669 0
DWIDTH 11 0
BBX 12 15 2 0
BITMAP
1F00
0000
F870
7060
7040
3880
3900
1A00
1E00
1C00
1C00
1800
1800
3800
7E00
ENDCHAR
STARTCHAR uni0233
ENCODING 563
SWIDTH 586 0
DWIDTH 10 0
BBX 12 14 0 -3
BITMAP
0F80
0000
3870
1C30
1C20
0C60
0CC0
0F80
0F00
0600
0400
0800
1000
F000
ENDCHAR
STARTCHAR uni0250
ENCODING 592
SWIDTH 634 0
DWIDTH 11 0
BBX 10 9 1 0
BITMAP
F180
77C0
7DC0
79C0
71C0
6180
6300
E200
FC00
ENDCHAR
STARTCHAR uni0259
ENCODING 601
SWIDTH 548 0
DWIDTH 9 0
BBX 8 9 1 0
BITMAP
7E
87
07
3F
67
C6
C6
CC
70
ENDCHAR
STARTCHAR uni025F
ENCODING 607
SWIDTH 415 0
DWIDTH 7 0
BBX 9 16 1 -7
BITMAP
0180
0380
0300
0300
0300
0700
0700
0600
0600
0600
0E00
3F00
0C00
8C00
9800
F000
ENDCHAR
STARTCHAR uni0265
ENCODING 613
SWIDTH 656 0
DWIDTH 11 0
BBX 10 13 1 -4
BITMAP
F1C0
71C0
7180
6180
6380
E780
E780
FB00
6300
0700
0700
0700
0780
ENDCHAR
STARTCHAR uni0275
ENCODING 629
SWIDTH 599 0
DWIDTH 10 0
BBX 9 9 1 0
BITMAP
0F00
3180
7180
6180
FF80
E380
E300
E600
7C00
ENDCHAR
STARTCHAR uni0279
ENCODING 633
SWIDTH 496 0
DWIDTH 8 0
BBX 9 9 1 0
BITMAP
0380
0380
0300
0300
0700
0F00
1F00
7600
C780
ENDCHAR
STARTCHAR uni0287
ENCODING 647
SWIDTH 375 0
DWIDTH 6 0
BBX 6 12 2 0
BITMAP
38
1C
1C
1C
18
18
18
38
FC
30
30
30
ENDCHAR
STARTCHAR uni0289
ENCODING 649
SWIDTH 655 0
DWIDTH 11 0
BBX 10 9 2 0
BITMAP
F3C0
71C0
7180
6180
FFC0
E780
E780
FB00
E3C0
ENDCHAR
STARTCHAR uni028C
ENCODING 652
SWIDTH 584 0
DWIDTH 10 0
BBX 10 9 1 0
BITMAP
0200
0600
0F00
1700
3700
6300
4380
C380
E3C0
ENDCHAR
STARTCHAR uni028D
ENCODING 653
SWIDTH 822 0
DWIDTH 14 0
BBX 14 9 1 0
BITMAP
0430
0E30
0E70
16F0
36B0
2730
4730
C238
E21C
ENDCHAR
STARTCHAR uni028E
ENCODING 654
SWIDTH 586 0
DWIDTH 10 0
BBX 12 12 0 0
BITMAP
00F0
0080
0100
0200
0600
0F00
1F00
3300
6300
4380
C380
E1C0
ENDCHAR
STARTCHAR uni029E
ENCODING 670
SWIDTH 626 0
DWIDTH 11 0
BBX 9 13 2 -4
BITMAP
E180
7380
3B80
1B00
1F00
3B00
7700
E700
E600
0600
0600
0E00
0F00
ENDCHAR
STARTCHAR uni02BB
ENCODING 699
SWIDTH 265 0
DWIDTH 4 0
BBX 4 6 2 7
BITMAP
30
60
40
E0
E0
E0
ENDCHAR
STARTCHAR afii57929
ENCODING 700
SWIDTH 265 0
DWIDTH 4 0
BBX 4 6 2 7
BITMAP
70
70
70
20
60
C0
ENDCHAR
STARTCHAR afii64937
ENCODING 701
SWIDTH 265 0
DWIDTH 4 0
BBX 4 6 2 7
BITMAP
E0
E0
E0
40
60
30
ENDCHAR
STARTCHAR circumflex
ENCODING 710
SWIDTH 599 0
DWIDTH 10 0
BBX 6 2 4 11
BITMAP
38
CC
ENDCHAR
STARTCHAR caron
ENCODING 711
SWIDTH 599 0
DWIDTH 10 0
BBX 6 2 5 11
BITMAP
CC
70
ENDCHAR
STARTCHAR uni02C8
ENCODING 712
SWIDTH 247 0
DWIDTH 4 0
BBX 3 6 3 7
BITMAP
E0
C0
C0
40
40
40
ENDCHAR
STARTCHAR macron
ENCODING 713
SWIDTH 599 0
DWIDTH 10 0
BBX 5 1 5 12
BITMAP
F8
ENDCHAR
STARTCHAR uni02CA
ENCODING 714
SWIDTH 599 0
DWIDTH 10 0
BBX 5 2 6 11
BITMAP
38
C0
ENDCHAR
STARTCHAR uni02CB
ENCODING 715
SWIDTH 599 0
DWIDTH 10 0
BBX 3 2 6 11
BITMAP
C0
20
ENDCHAR
STARTCHAR uni02CD
ENCODING 717
SWIDTH 599 0
DWIDTH 10 0
BBX 5 1 5 -2
BITMAP
F8
ENDCHAR
STARTCHAR uni02CE
ENCODING 718
SWIDTH 599 0
DWIDTH 10 0
BBX 3 2 6 -3
BITMAP
C0
20
ENDCHAR
STARTCHAR uni02CF
ENCODING 719
SWIDTH 599 0
DWIDTH 10 0
BBX 5 2 6 -3
BITMAP
38
C0
ENDCHAR
STARTCHAR breve
ENCODING 728
SWIDTH 599 0
DWIDTH 10 0
BBX 6 2 5 11
BITMAP
84
78
ENDCHAR
STARTCHAR dotaccent
ENCODING 729
SWIDTH 599 0
DWIDTH 10 0
BBX 2 2 6 11
BITMAP
C0
C0
ENDCHAR
STARTCHAR ring
ENCODING 730
SWIDTH 599 0
DWIDTH 10 0
BBX 3 3 6 10
BITMAP
E0
A0
E0
ENDCHAR
STARTCHAR ogonek
ENCODING 731
SWIDTH 599 0
DWIDTH 10 0
BBX 3 2 3 -3
BITMAP
40
E0
ENDCHAR
STARTCHAR tilde
ENCODING 732
SWIDTH 599 0
DWIDTH 10 0
BBX 6 2 5 11
BITMAP
74
B8
ENDCHAR
STARTCHAR hungarumlaut
ENCODING 733
SWIDTH 599 0
DWIDTH 10 0
BBX 6 2 6 11
BITMAP
7C
B0
ENDCHAR
STARTCHAR uni02EE
ENCODING 750
SWIDTH 464 0
DWIDTH 8 0
BBX 7 6 2 7
BITMAP
66
6E
6E
64
6C
C8
ENDCHAR
STARTCHAR uni037E
ENCODING 894
SWIDTH 265 0
DWIDTH 4 0
BBX 5 12 0 -3
BITMAP
38
38
00
00
00
00
00
70
60
60
60
C0
ENDCHAR
STARTCHAR tonos
ENCODING 900
SWIDTH 599 0
DWIDTH 10 0
BBX 5 2 6 11
BITMAP
38
C0
ENDCHAR
STARTCHAR dieresistonos
ENCODING 901
SWIDTH 599 0
DWIDTH 10 0
BBX 6 4 5 12
BITMAP
1C
60
00
D8
ENDCHAR
STARTCHAR anoteleia
ENCODING 903
SWIDTH 636 0
DWIDTH 11 0
BBX 2 2 5 4
BITMAP
C0
C0
ENDCHAR
STARTCHAR mu
ENCODING 956
SWIDTH 687 0
DWIDTH 12 0
BBX 10 12 1 -3
BITMAP
7BC0
31C0
31C0
3180
7180
7380
6780
6780
7BC0
E000
E000
C000
ENDCHAR
STARTCHAR uni1E00
ENCODING 7680
SWIDTH 765 0
DWIDTH 13 0
BBX 13 17 0 -4
BITMAP
00C0
01C0
01C0
02C0
02C0
04E0
08E0
0860
1FE0
1070
2070
4070
F0F8
0000
0380
0280
0380
ENDCHAR
STARTCHAR uni1E01
ENCODING 7681
SWIDTH 634 0
DWIDTH 11 0
BBX 10 13 1 -4
BITMAP
0FC0
11C0
3180
6180
E380
E780
EF80
FB80
63C0
0000
1C00
1400
1C00
ENDCHAR
STARTCHAR uni1E02
ENCODING 7682
SWIDTH 651 0
DWIDTH 11 0
BBX 11 16 1 0
BITMAP
0600
0600
0000
3FC0
1CE0
1CE0
18E0
18C0
1980
1F00
39C0
30C0
30C0
30C0
71C0
FF00
ENDCHAR
STARTCHAR uni1E03
ENCODING 7683
SWIDTH 633 0
DWIDTH 11 0
BBX 10 16 1 0
BITMAP
1800
1800
0000
7800
3800
3800
3000
3380
35C0
79C0
71C0
7180
6180
6300
E200
FC00
ENDCHAR
STARTCHAR uni1E04
ENCODING 7684
SWIDTH 651 0
DWIDTH 11 0
BBX 11 16 1 -3
BITMAP
3FC0
1CE0
1CE0
18E0
18C0
1980
1F00
39C0
30C0
30C0
30C0
71C0
FF00
0000
0C00
0C00
ENDCHAR
STARTCHAR uni1E05
ENCODING 7685
SWIDTH 633 0
DWIDTH 11 0
BBX 10 16 1 -3
BITMAP
7800
3800
3800
3000
3380
35C0
79C0
71C0
7180
6180
6300
E200
FC00
0000
1800
1800
ENDCHAR
STARTCHAR uni1E06
ENCODING 7686
SWIDTH 651 0
DWIDTH 11 0
BBX 11 15 1 -2
BITMAP
3FC0
1CE0
1CE0
18E0
18C0
1980
1F00
39C0
30C0
30C0
30C0
71C0
FF00
0000
1F00
ENDCHAR
STARTCHAR uni1E07
ENCODING 7687
SWIDTH 633 0
DWIDTH 11 0
BBX 10 15 1 -2
BITMAP
7800
3800
3800
3000
3380
35C0
79C0
71C0
7180
6180
6300
E200
FC00
0000
3E00
ENDCHAR
STARTCHAR uni1E08
ENCODING 7688
SWIDTH 740 0
DWIDTH 13 0
BBX 12 19 2 -3
BITMAP
01C0
0600
0000
07F0
1C30
3830
3030
6000
6000
E000
E000
E000
E000
6000
70C0
1F80
1000
0800
3800
ENDCHAR
STARTCHAR uni1E09
ENCODING 7689
SWIDTH 524 0
DWIDTH 9 0
BBX 9 15 1 -3
BITMAP
0700
1800
0000
0F80
3100
6100
6000
E000
E000
E000
E100
7E00
2000
1000
7000
ENDCHAR
STARTCHAR uni1E0A
ENCODING 7690
SWIDTH 822 0
DWIDTH 14 0
BBX 14 16 1 0
BITMAP
0180
0180
0000
3FF0
1C38
1C1C
1C1C
1C1C
181C
181C
381C
3818
3838
3070
70E0
FF80
ENDCHAR
STARTCHAR uni1E0B
ENCODING 7691
SWIDTH 634 0
DWIDTH 11 0
BBX 11 16 1 0
BITMAP
0180
0180
0000
01E0
00E0
00C0
00C0
0FC0
11C0
31C0
6180
6380
E380
E780
EB80
73C0
ENDCHAR
STARTCHAR uni1E0C
ENCODING 7692
SWIDTH 822 0
DWIDTH 14 0
BBX 14 16 1 -3
BITMAP
3FF0
1C38
1C1C
1C1C
1C1C
181C
181C
381C
3818
3838
3070
70E0
FF80
0000
0600
0600
ENDCHAR
STARTCHAR uni1E0D
ENCODING 7693
SWIDTH 634 0
DWIDTH 11 0
BBX 11 16 1 -3
BITMAP
01E0
00E0
00C0
00C0
0FC0
11C0
31C0
6180
6380
E380
E780
EB80
73C0
0000
0C00
0C00
ENDCHAR
STARTCHAR uni1E0E
ENCODING 7694
SWIDTH 822 0
DWIDTH 14 0
BBX 14 15 1 -2
BITMAP
3FF0
1C38
1C1C
1C1C
1C1C
181C
181C
381C
3818
3838
3070
70E0
FF80
0000
0F80
ENDCHAR
STARTCHAR uni1E0F
ENCODING 7695
SWIDTH 634 0
DWIDTH 11 0
BBX 11 15 1 -2
BITMAP
01E0
00E0
00C0
00C0
0FC0
11C0
31C0
6180
6380
E380
E780
EB80
73C0
0000
1F00
ENDCHAR
STARTCHAR uni1E10
ENCODING 7696
SWIDTH 822 0
DWIDTH 14 0
BBX 14 16 1 -3
BITMAP
3FF0
1C38
1C1C
1C1C
1C1C
181C
181C
381C
3818
3838
3070
70E0
FF80
0300
0100
0700
ENDCHAR
STARTCHAR uni1E11
ENCODING 7697
SWIDTH 634 0
DWIDTH 11 0
BBX 11 16 1 -3
BITMAP
01E0
00E0
00C0
00C0
0FC0
11C0
31C0
6180
6380
E380
E780
EB80
73C0
0C00
0400
1C00
ENDCHAR
STARTCHAR uni1E12
ENCODING 7698
SWIDTH 822 0
DWIDTH 14 0
BBX 14 16 1 -3
BITMAP
3FF0
1C38
1C1C
1C1C
1C1C
181C
181C
381C
3818
3838
3070
70E0
FF80
0000
0700
1980
ENDCHAR
STARTCHAR uni1E13
ENCODING 7699
SWIDTH 634 0
DWIDTH 11 0
BBX 11 16 1 -3
BITMAP
01E0
00E0
00C0
00C0
0FC0
11C0
31C0
6180
6380
E380
E780
EB80
73C0
0000
0E00
3300
ENDCHAR
STARTCHAR uni1E14
ENCODING 7700
SWIDTH 630 0
DWIDTH 11 0
BBX 11 18 1 0
BITMAP
0C00
0200
0000
1F00
0000
3FE0
1C60
1C00
1C00
1800
1880
3F80
3880
3800
3000
3000
7080
FF80
ENDCHAR
STARTCHAR uni1E15
ENCODING 7701
SWIDTH 548 0
DWIDTH 9 0
BBX 8 14 1 0
BITMAP
30
08
00
3E
00
0E
33
63
63
E6
FC
E0
E1
7E
ENDCHAR
STARTCHAR uni1E16
ENCODING 7702
SWIDTH 630 0
DWIDTH 11 0
BBX 11 18 1 0
BITMAP
01C0
0600
0000
1F00
0000
3FE0
1C60
1C00
1C00
1800
1880
3F80
3880
3800
3000
3000
7080
FF80
ENDCHAR
STARTCHAR uni1E17
ENCODING 7703
SWIDTH 548 0
DWIDTH 9 0
BBX 8 14 1 0
BITMAP
07
18
00
3E
00
0E
33
63
63
E6
FC
E0
E1
7E
ENDCHAR
STARTCHAR uni1E18
ENCODING 7704
SWIDTH 630 0
DWIDTH 11 0
BBX 11 16 1 -3
BITMAP
3FE0
1C60
1C00
1C00
1800
1880
3F80
3880
3800
3000
3000
7080
FF80
0000
1C00
6600
ENDCHAR
STARTCHAR uni1E19
ENCODING 7705
SWIDTH 548 0
DWIDTH 9 0
BBX 8 12 1 -3
BITMAP
0E
33
63
63
E6
FC
E0
E1
7E
00
38
CC
ENDCHAR
STARTCHAR uni1E1A
ENCODING 7706
SWIDTH 630 0
DWIDTH 11 0
BBX 11 16 1 -3
BITMAP
3FE0
1C60
1C00
1C00
1800
1880
3F80
3880
3800
3000
3000
7080
FF80
0000
3A00
5C00
ENDCHAR
STARTCHAR uni1E1B
ENCODING 7707
SWIDTH 548 0
DWIDTH 9 0
BBX 8 12 1 -3
BITMAP
0E
33
63
63
E6
FC
E0
E1
7E
00
74
B8
ENDCHAR
STARTCHAR uni1E1C
ENCODING 7708
SWIDTH 630 0
DWIDTH 11 0
BBX 11 19 1 -3
BITMAP
1080
0F00
0000
3FE0
1C60
1C00
1C00
1800
1880
3F80
3880
3800
3000
3000
7080
FF80
0C00
0400
1C00
ENDCHAR
STARTCHAR uni1E1D
ENCODING 7709
SWIDTH 548 0
DWIDTH 9 0
BBX 8 15 1 -3
BITMAP
21
1E
00
0E
33
63
63
E6
FC
E0
E1
7E
18
08
38
ENDCHAR
STARTCHAR uni1E1E
ENCODING 7710
SWIDTH 602 0
DWIDTH 10 0
BBX 11 16 1 0
BITMAP
0600
0600
0000
3FE0
1C60
1C00
1800
1800
1880
3F80
3880
3800
3000
3000
7000
F800
ENDCHAR
STARTCHAR uni1E1F
ENCODING 7711
SWIDTH 415 0
DWIDTH 7 0
BBX 9 19 1 -3
BITMAP
0C00
0C00
0000
0780
0C80
1880
1800
7E00
3800
3000
3000
3000
7000
7000
6000
6000
6000
E000
C000
ENDCHAR
STARTCHAR uni1E20
ENCODING 7712
SWIDTH 780 0
DWIDTH 13 0
BBX 12 15 2 0
BITMAP
0F80
0000
07F0
1C30
3830
3000
7000
6000
E000
E1F0
E0E0
E0C0
60C0
71C0
1F80
ENDCHAR
STARTCHAR uni1E21
ENCODING 7713
SWIDTH 628 0
DWIDTH 11 0
BBX 10 14 1 -3
BITMAP
1F00
0000
07C0
19C0
31C0
7180
6380
6380
6780
6B80
7300
8300
C600
FC00
ENDCHAR
STARTCHAR uni1E22
ENCODING 7714
SWIDTH 827 0
DWIDTH 14 0
BBX 15 16 1 0
BITMAP
0180
0180
0000
3F3E
1C1C
1C18
1C18
1838
1838
1FF0
3830
3830
3070
3070
7070
F9F8
ENDCHAR
STARTCHAR uni1E23
ENCODING 7715
SWIDTH 656 0
DWIDTH 11 0
BBX 10 16 1 0
BITMAP
1800
1800
0000
7800
3800
3800
3800
3180
37C0
79C0
79C0
7180
6180
6380
E380
E3C0
ENDCHAR
STARTCHAR uni1E24
ENCODING 7716
SWIDTH 827 0
DWIDTH 14 0
BBX 15 16 1 -3
BITMAP
3F3E
1C1C
1C18
1C18
1838
1838
1FF0
3830
3830
3070
3070
7070
F9F8
0000
0300
0300
ENDCHAR
STARTCHAR uni1E25
ENCODING 7717
SWIDTH 656 0
DWIDTH 11 0
BBX 10 16 1 -3
BITMAP
7800
3800
3800
3800
3180
37C0
79C0
79C0
7180
6180
6380
E380
E3C0
0000
0C00
0C00
ENDCHAR
STARTCHAR uni1E26
ENCODING 7718
SWIDTH 827 0
DWIDTH 14 0
BBX 15 15 1 0
BITMAP
06C0
0000
3F3E
1C1C
1C18
1C18
1838
1838
1FF0
3830
3830
3070
3070
7070
F9F8
ENDCHAR
STARTCHAR uni1E27
ENCODING 7719
SWIDTH 656 0
DWIDTH 11 0
BBX 10 15 1 0
BITMAP
6C00
0000
7800
3800
3800
3800
3180
37C0
79C0
79C0
7180
6180
6380
E380
E3C0
ENDCHAR
STARTCHAR uni1E28
ENCODING 7720
SWIDTH 827 0
DWIDTH 14 0
BBX 15 16 1 -3
BITMAP
3F3E
1C1C
1C18
1C18
1838
1838
1FF0
3830
3830
3070
3070
7070
F9F8
0300
0100
0700
ENDCHAR
STARTCHAR uni1E29
ENCODING 7721
SWIDTH 656 0
DWIDTH 11 0
BBX 10 16 1 -3
BITMAP
7800
3800
3800
3800
3180
37C0
79C0
79C0
7180
6180
6380
E380
E3C0
0C00
0400
1C00
ENDCHAR
STARTCHAR uni1E2A
ENCODING 7722
SWIDTH 827 0
DWIDTH 14 0
BBX 15 16 1 -3
BITMAP
3F3E
1C1C
1C18
1C18
1838
1838
1FF0
3830
3830
3070
3070
7070
F9F8
0000
0840
0780
ENDCHAR
STARTCHAR uni1E2B
ENCODING 7723
SWIDTH 656 0
DWIDTH 11 0
BBX 10 16 1 -3
BITMAP
7800
3800
3800
3800
3180
37C0
79C0
79C0
7180
6180
6380
E380
E3C0
0000
2100
1E00
ENDCHAR
STARTCHAR uni1E2C
ENCODING 7724
SWIDTH 372 0
DWIDTH 6 0
BBX 8 16 0 -3
BITMAP
3F
0E
0C
1C
1C
1C
18
18
38
38
38
70
FC
00
74
B8
ENDCHAR
STARTCHAR uni1E2D
ENCODING 7725
SWIDTH 319 0
DWIDTH 5 0
BBX 6 16 1 -3
BITMAP
1C
1C
00
00
78
38
38
38
30
30
70
70
78
00
74
B8
ENDCHAR
STARTCHAR uni1E2E
ENCODING 7726
SWIDTH 372 0
DWIDTH 6 0
BBX 8 18 0 0
BITMAP
07
18
00
1B
00
3F
0E
0C
1C
1C
1C
18
18
38
38
38
70
FC
ENDCHAR
STARTCHAR uni1E2F
ENCODING 7727
SWIDTH 319 0
DWIDTH 5 0
BBX 6 14 2 0
BITMAP
1C
60
00
6C
00
F0
70
70
60
60
60
E0
E0
F0
ENDCHAR
STARTCHAR uni1E30
ENCODING 7728
SWIDTH 746 0
DWIDTH 13 0
BBX 13 16 1 0
BITMAP
01C0
0600
0000
3E38
1C30
1C40
1880
1900
1A00
1F00
3F00
3B80
31C0
31C0
70E0
F9F0
ENDCHAR
STARTCHAR uni1E31
ENCODING 7729
SWIDTH 626 0
DWIDTH 11 0
BBX 9 16 2 0
BITMAP
0E00
3000
0000
7800
3800
3000
3000
3380
7380
7700
6E00
7C00
6C00
EE00
E700
C380
ENDCHAR
STARTCHAR uni1E32
ENCODING 7730
SWIDTH 746 0
DWIDTH 13 0
BBX 13 16 1 -3
BITMAP
3E38
1C30
1C40
1880
1900
1A00
1F00
3F00
3B80
31C0
31C0
70E0
F9F0
0000
0600
0600
ENDCHAR
STARTCHAR uni1E33
ENCODING 7731
SWIDTH 626 0
DWIDTH 11 0
BBX 9 16 2 -3
BITMAP
7800
3800
3000
3000
3380
7380
7700
6E00
7C00
6C00
EE00
E700
C380
0000
1800
1800
ENDCHAR
STARTCHAR uni1E34
ENCODING 7732
SWIDTH 746 0
DWIDTH 13 0
BBX 13 15 1 -2
BITMAP
3E38
1C30
1C40
1880
1900
1A00
1F00
3F00
3B80
31C0
31C0
70E0
F9F0
0000
0F80
ENDCHAR
STARTCHAR uni1E35
ENCODING 7733
SWIDTH 626 0
DWIDTH 11 0
BBX 9 15 2 -2
BITMAP
7800
3800
3000
3000
3380
7380
7700
6E00
7C00
6C00
EE00
E700
C380
0000
3E00
ENDCHAR
STARTCHAR uni1E36
ENCODING 7734
SWIDTH 611 0
DWIDTH 10 0
BBX 10 16 1 -3
BITMAP
3F00
1C00
1C00
1C00
1C00
1800
1800
3800
3800
3800
3040
70C0
FF80
0000
0C00
0C00
ENDCHAR
STARTCHAR uni1E37
ENCODING 7735
SWIDTH 319 0
DWIDTH 5 0
BBX 5 16 1 -3
BITMAP
78
38
38
30
30
70
70
70
60
60
E0
E0
F0
00
60
60
ENDCHAR
STARTCHAR uni1E38
ENCODING 7736
SWIDTH 611 0
DWIDTH 10 0
BBX 10 18 1 -3
BITMAP
3E00
0000
3F00
1C00
1C00
1C00
1C00
1800
1800
3800
3800
3800
3040
70C0
FF80
0000
0C00
0C00
ENDCHAR
STARTCHAR uni1E39
ENCODING 7737
SWIDTH 319 0
DWIDTH 5 0
BBX 5 18 1 -3
BITMAP
F8
00
78
38
38
30
30
70
70
70
60
60
E0
E0
F0
00
60
60
ENDCHAR
STARTCHAR uni1E3A
ENCODING 7738
SWIDTH 611 0
DWIDTH 10 0
BBX 10 15 1 -2
BITMAP
3F00
1C00
1C00
1C00
1C00
1800
1800
3800
3800
3800
3040
70C0
FF80
0000
3E00
ENDCHAR
STARTCHAR uni1E3B
ENCODING 7739
SWIDTH 319 0
DWIDTH 5 0
BBX 5 15 1 -2
BITMAP
78
38
38
30
30
70
70
70
60
60
E0
E0
F0
00
F8
ENDCHAR
STARTCHAR uni1E3C
ENCODING 7740
SWIDTH 611 0
DWIDTH 10 0
BBX 10 16 1 -3
BITMAP
3F00
1C00
1C00
1C00
1C00
1800
1800
3800
3800
3800
3040
70C0
FF80
0000
1C00
6600
ENDCHAR
STARTCHAR uni1E3D
ENCODING 7741
SWIDTH 319 0
DWIDTH 5 0
BBX 6 16 0 -3
BITMAP
3C
1C
1C
18
18
38
38
38
30
30
70
70
78
00
38
CC
ENDCHAR
STARTCHAR uni1E3E
ENCODING 7742
SWIDTH 926 0
DWIDTH 16 0
BBX 17 16 1 0
BITMAP
003800
00C000
000000
3C0780
1C0F00
1E0E00
161600
161600
162E00
174C00
334C00
238C00
230C00
211C00
601C00
F03E00
ENDCHAR
STARTCHAR uni1E3F
ENCODING 7743
SWIDTH 969 0
DWIDTH 16 0
BBX 15 12 2 0
BITMAP
00E0
0300
0000
F39C
77BE
79AE
71CE
73CC
638C
630C
E31C
C31E
ENDCHAR
STARTCHAR uni1E40
ENCODING 7744
SWIDTH 926 0
DWIDTH 16 0
BBX 17 16 1 0
BITMAP
00C000
00C000
000000
3C0780
1C0F00
1E0E00
161600
161600
162E00
174C00
334C00
238C00
230C00
211C00
601C00
F03E00
ENDCHAR
STARTCHAR uni1E41
ENCODING 7745
SWIDTH 969 0
DWIDTH 16 0
BBX 15 12 2 0
BITMAP
0180
0180
0000
F39C
77BE
79AE
71CE
73CC
638C
630C
E31C
C31E
ENDCHAR
STARTCHAR uni1E42
ENCODING 7746
SWIDTH 926 0
DWIDTH 16 0
BBX 17 16 1 -3
BITMAP
3C0780
1C0F00
1E0E00
161600
161600
162E00
174C00
334C00
238C00
230C00
211C00
601C00
F03E00
000000
018000
018000
ENDCHAR
STARTCHAR uni1E43
ENCODING 7747
SWIDTH 969 0
DWIDTH 16 0
BBX 15 12 2 -3
BITMAP
F39C
77BE
79AE
71CE
73CC
638C
630C
E31C
C31E
0000
0180
0180
ENDCHAR
STARTCHAR uni1E44
ENCODING 7748
SWIDTH 797 0
DWIDTH 14 0
BBX 15 16 0 0
BITMAP
0180
0180
0000
3C1E
1C0C
1E08
1608
1708
1318
1390
3190
21D0
20D0
20F0
6060
F060
ENDCHAR
STARTCHAR uni1E45
ENCODING 7749
SWIDTH 656 0
DWIDTH 11 0
BBX 10 12 1 0
BITMAP
0C00
0C00
0000
F380
35C0
79C0
79C0
7180
6180
6380
E380
E3C0
ENDCHAR
STARTCHAR uni1E46
ENCODING 7750
SWIDTH 797 0
DWIDTH 14 0
BBX 15 16 0 -3
BITMAP
3C1E
1C0C
1E08
1608
1708
1318
1390
3190
21D0
20D0
20F0
6060
F060
0000
0300
0300
ENDCHAR
STARTCHAR uni1E47
ENCODING 7751
SWIDTH 656 0
DWIDTH 11 0
BBX 10 12 1 -3
BITMAP
F380
35C0
79C0
79C0
7180
6180
6380
E380
E3C0
0000
0C00
0C00
ENDCHAR
STARTCHAR uni1E48
ENCODING 7752
SWIDTH 797 0
DWIDTH 14 0
BBX 15 15 0 -2
BITMAP
3C1E
1C0C
1E08
1608
1708
1318
1390
3190
21D0
20D0
20F0
6060
F060
0000
0F80
ENDCHAR
STARTCHAR uni1E49
ENCODING 7753
SWIDTH 656 0
DWIDTH 11 0
BBX 10 11 1 -2
BITMAP
F380
35C0
79C0
79C0
7180
6180
6380
E380
E3C0
0000
1F00
ENDCHAR
STARTCHAR uni1E4A
ENCODING 7754
SWIDTH 797 0
DWIDTH 14 0
BBX 15 16 0 -3
BITMAP
3C1E
1C0C
1E08
1608
1708
1318
1390
3190
21D0
20D0
20F0
6060
F060
0000
0380
0CC0
ENDCHAR
STARTCHAR uni1E4B
ENCODING 7755
SWIDTH 656 0
DWIDTH 11 0
BBX 10 12 1 -3
BITMAP
F380
35C0
79C0
79C0
7180
6180
6380
E380
E3C0
0000
0E00
3300
ENDCHAR
STARTCHAR uni1E4C
ENCODING 7756
SWIDTH 831 0
DWIDTH 14 0
BBX 13 19 2 0
BITMAP
00E0
0300
0000
03A0
05C0
0000
07C0
0C70
3830
3038
7038
6038
E038
E030
E070
E060
E0C0
7180
3E00
ENDCHAR
STARTCHAR uni1E4D
ENCODING 7757
SWIDTH 599 0
DWIDTH 10 0
BBX 9 15 1 0
BITMAP
0380
0C00
0000
0E80
1700
0000
0F00
3180
7180
6180
E180
E380
E300
E600
7C00
ENDCHAR
STARTCHAR uni1E4E
ENCODING 7758
SWIDTH 831 0
DWIDTH 14 0
BBX 13 18 2 0
BITMAP
06C0
0000
03A0
05C0
0000
07C0
0C70
3830
3038
7038
6038
E038
E030
E070
E060
E0C0
7180
3E00
ENDCHAR
STARTCHAR uni1E4F
ENCODING 7759
SWIDTH 599 0
DWIDTH 10 0
BBX 9 14 1 0
BITMAP
1B00
0000
0E80
1700
0000
0F00
3180
7180
6180
E180
E380
E300
E600
7C00
ENDCHAR
STARTCHAR uni1E50
ENCODING 7760
SWIDTH 831 0
DWIDTH 14 0
BBX 13 18 2 0
BITMAP
0600
0100
0000
07C0
0000
07C0
0C70
3830
3038
7038
6038
E038
E030
E070
E060
E0C0
7180
3E00
ENDCHAR
STARTCHAR uni1E51
ENCODING 7761
SWIDTH 599 0
DWIDTH 10 0
BBX 9 14 1 0
BITMAP
1800
0400
0000
1F00
0000
0F00
3180
7180
6180
E180
E380
E300
E600
7C00
ENDCHAR
STARTCHAR uni1E52
ENCODING 7762
SWIDTH 831 0
DWIDTH 14 0
BBX 13 18 2 0
BITMAP
00E0
0300
0000
07C0
0000
07C0
0C70
3830
3038
7038
6038
E038
E030
E070
E060
E0C0
7180
3E00
ENDCHAR
STARTCHAR uni1E53
ENCODING 7763
SWIDTH 599 0
DWIDTH 10 0
BBX 9 14 1 0
BITMAP
0380
0C00
0000
1F00
0000
0F00
3180
7180
6180
E180
E380
E300
E600
7C00
ENDCHAR
STARTCHAR uni1E54
ENCODING 7764
SWIDTH 628 0
DWIDTH 11 0
BBX 11 16 1 0
BITMAP
01C0
0600
0000
3FC0
1CE0
18E0
18E0
18E0
18C0
3980
3F00
3000
3000
3000
7000
F800
ENDCHAR
STARTCHAR uni1E55
ENCODING 7765
SWIDTH 639 0
DWIDTH 11 0
BBX 11 15 1 -3
BITMAP
0380
0C00
0000
79C0
3AE0
3CE0
38E0
38E0
70C0
7180
7100
7E00
6000
E000
E000
ENDCHAR
STARTCHAR uni1E56
ENCODING 7766
SWIDTH 628 0
DWIDTH 11 0
BBX 11 16 1 0
BITMAP
0600
0600
0000
3FC0
1CE0
18E0
18E0
18E0
18C0
3980
3F00
3000
3000
3000
7000
F800
ENDCHAR
STARTCHAR uni1E57
ENCODING 7767
SWIDTH 639 0
DWIDTH 11 0
BBX 11 15 1 -3
BITMAP
0600
0600
0000
79C0
3AE0
3CE0
38E0
38E0
70C0
7180
7100
7E00
6000
E000
E000
ENDCHAR
STARTCHAR uni1E58
ENCODING 7768
SWIDTH 711 0
DWIDTH 12 0
BBX 12 16 0 0
BITMAP
0300
0300
0000
3FE0
0C70
1C70
1C70
1C60
18E0
1F80
3B80
3980
39C0
30C0
70E0
F870
ENDCHAR
STARTCHAR uni1E59
ENCODING 7769
SWIDTH 496 0
DWIDTH 8 0
BBX 9 12 1 0
BITMAP
1800
1800
0000
F180
3700
7C00
7800
7000
6000
6000
E000
E000
ENDCHAR
STARTCHAR uni1E5A
ENCODING 7770
SWIDTH 711 0
DWIDTH 12 0
BBX 12 16 0 -3
BITMAP
3FE0
0C70
1C70
1C70
1C60
18E0
1F80
3B80
3980
39C0
30C0
70E0
F870
0000
0600
0600
ENDCHAR
STARTCHAR uni1E5B
ENCODING 7771
SWIDTH 496 0
DWIDTH 8 0
BBX 9 12 1 -3
BITMAP
F180
3700
7C00
7800
7000
6000
6000
E000
E000
0000
3000
3000
ENDCHAR
STARTCHAR uni1E5C
ENCODING 7772
SWIDTH 711 0
DWIDTH 12 0
BBX 12 18 0 -3
BITMAP
0F80
0000
3FE0
0C70
1C70
1C70
1C60
18E0
1F80
3B80
3980
39C0
30C0
70E0
F870
0000
0600
0600
ENDCHAR
STARTCHAR uni1E5D
ENCODING 7773
SWIDTH 496 0
DWIDTH 8 0
BBX 9 14 1 -3
BITMAP
3E00
0000
F180
3700
7C00
7800
7000
6000
6000
E000
E000
0000
3000
3000
ENDCHAR
STARTCHAR uni1E5E
ENCODING 7774
SWIDTH 711 0
DWIDTH 12 0
BBX 12 15 0 -2
BITMAP
3FE0
0C70
1C70
1C70
1C60
18E0
1F80
3B80
3980
39C0
30C0
70E0
F870
0000
1F00
ENDCHAR
STARTCHAR uni1E5F
ENCODING 7775
SWIDTH 496 0
DWIDTH 8 0
BBX 9 11 1 -2
BITMAP
F180
3700
7C00
7800
7000
6000
6000
E000
E000
0000
F800
ENDCHAR
STARTCHAR uni1E60
ENCODING 7776
SWIDTH 587 0
DWIDTH 10 0
BBX 10 16 1 0
BITMAP
0600
0600
0000
0FC0
18C0
30C0
3000
3800
3C00
1E00
0700
0380
0380
C380
C700
FC00
ENDCHAR
STARTCHAR uni1E61
ENCODING 7777
SWIDTH 479 0
DWIDTH 8 0
BBX 8 12 1 0
BITMAP
0C
0C
00
1F
31
33
38
1C
0E
86
CE
FC
ENDCHAR
STARTCHAR uni1E62
ENCODING 7778
SWIDTH 587 0
DWIDTH 10 0
BBX 10 16 1 -3
BITMAP
0FC0
18C0
30C0
3000
3800
3C00
1E00
0700
0380
0380
C380
C700
FC00
0000
0C00
0C00
ENDCHAR
STARTCHAR uni1E63
ENCODING 7779
SWIDTH 479 0
DWIDTH 8 0
BBX 8 12 1 -3
BITMAP
1F
31
33
38
1C
0E
86
CE
FC
00
18
18
ENDCHAR
STARTCHAR uni1E64
ENCODING 7780
SWIDTH 587 0
DWIDTH 10 0
BBX 10 19 1 0
BITMAP
0600
0600
0000
0380
0C00
0000
0FC0
18C0
30C0
3000
3800
3C00
1E00
0700
0380
0380
C380
C700
FC00
ENDCHAR
STARTCHAR uni1E65
ENCODING 7781
SWIDTH 479 0
DWIDTH 8 0
BBX 8 15 1 0
BITMAP
0C
0C
00
07
18
00
1F
31
33
38
1C
0E
86
CE
FC
ENDCHAR
STARTCHAR uni1E66
ENCODING 7782
SWIDTH 587 0
DWIDTH 10 0
BBX 10 19 1 0
BITMAP
0600
0600
0000
0CC0
0700
0000
0FC0
18C0
30C0
3000
3800
3C00
1E00
0700
0380
0380
C380
C700
FC00
ENDCHAR
STARTCHAR uni1E67
ENCODING 7783
SWIDTH 479 0
DWIDTH 8 0
BBX 9 15 1 0
BITMAP
0C00
0C00
0000
1980
0E00
0000
1F00
3100
3300
3800
1C00
0E00
8600
CE00
FC00
ENDCHAR
STARTCHAR uni1E68
ENCODING 7784
SWIDTH 587 0
DWIDTH 10 0
BBX 10 19 1 -3
BITMAP
0C00
0C00
0000
0FC0
18C0
30C0
3000
3800
3C00
1E00
0700
0380
0380
C380
C700
FC00
0000
0C00
0C00
ENDCHAR
STARTCHAR uni1E69
ENCODING 7785
SWIDTH 479 0
DWIDTH 8 0
BBX 8 15 1 -3
BITMAP
0C
0C
00
1F
31
33
38
1C
0E
86
CE
FC
00
18
18
ENDCHAR
STARTCHAR uni1E6A
ENCODING 7786
SWIDTH 716 0
DWIDTH 12 0
BBX 12 16 2 0
BITMAP
0600
0600
0000
FFF0
C630
8630
0E00
0E00
0C00
0C00
0C00
1C00
1C00
1C00
1800
7E00
ENDCHAR
STARTCHAR uni1E6B
ENCODING 7787
SWIDTH 375 0
DWIDTH 6 0
BBX 6 15 2 0
BITMAP
30
30
00
30
30
30
FC
70
60
60
60
E0
E0
E0
70
ENDCHAR
STARTCHAR uni1E6C
ENCODING 7788
SWIDTH 716 0
DWIDTH 12 0
BBX 12 16 2 -3
BITMAP
FFF0
C630
8630
0E00
0E00
0C00
0C00
0C00
1C00
1C00
1C00
1800
7E00
0000
0C00
0C00
ENDCHAR
STARTCHAR uni1E6D
ENCODING 7789
SWIDTH 375 0
DWIDTH 6 0
BBX 6 15 2 -3
BITMAP
30
30
30
FC
70
60
60
60
E0
E0
E0
70
00
60
60
ENDCHAR
STARTCHAR uni1E6E
ENCODING 7790
SWIDTH 716 0
DWIDTH 12 0
BBX 12 15 2 -2
BITMAP
FFF0
C630
8630
0E00
0E00
0C00
0C00
0C00
1C00
1C00
1C00
1800
7E00
0000
3E00
ENDCHAR
STARTCHAR uni1E6F
ENCODING 7791
SWIDTH 375 0
DWIDTH 6 0
BBX 6 14 2 -2
BITMAP
30
30
30
FC
70
60
60
60
E0
E0
E0
70
00
F8
ENDCHAR
STARTCHAR uni1E70
ENCODING 7792
SWIDTH 716 0
DWIDTH 12 0
BBX 12 16 2 -3
BITMAP
FFF0
C630
8630
0E00
0E00
0C00
0C00
0C00
1C00
1C00
1C00
1800
7E00
0000
1C00
6600
ENDCHAR
STARTCHAR uni1E71
ENCODING 7793
SWIDTH 375 0
DWIDTH 6 0
BBX 7 15 1 -3
BITMAP
18
18
18
7E
38
30
30
30
70
70
70
38
00
38
CC
ENDCHAR
STARTCHAR uni1E72
ENCODING 7794
SWIDTH 775 0
DWIDTH 13 0
BBX 13 15 3 -2
BITMAP
FC78
7020
7020
7020
6040
6040
E040
E040
E040
E080
E080
6100
3E00
0000
3600
ENDCHAR
STARTCHAR uni1E73
ENCODING 7795
SWIDTH 655 0
DWIDTH 11 0
BBX 10 11 2 -2
BITMAP
F3C0
71C0
7180
6180
6380
E780
E780
FB00
E3C0
0000
3600
ENDCHAR
STARTCHAR uni1E74
ENCODING 7796
SWIDTH 775 0
DWIDTH 13 0
BBX 13 16 3 -3
BITMAP
FC78
7020
7020
7020
6040
6040
E040
E040
E040
E080
E080
6100
3E00
0000
1D00
2E00
ENDCHAR
STARTCHAR uni1E75
ENCODING 7797
SWIDTH 655 0
DWIDTH 11 0
BBX 10 12 2 -3
BITMAP
F3C0
71C0
7180
6180
6380
E780
E780
FB00
E3C0
0000
1D00
2E00
ENDCHAR
STARTCHAR uni1E76
ENCODING 7798
SWIDTH 775 0
DWIDTH 13 0
BBX 13 16 3 -3
BITMAP
FC78
7020
7020
7020
6040
6040
E040
E040
E040
E080
E080
6100
3E00
0000
1C00
6600
ENDCHAR
STARTCHAR uni1E77
ENCODING 7799
SWIDTH 655 0
DWIDTH 11 0
BBX 10 12 2 -3
BITMAP
F3C0
71C0
7180
6180
6380
E780
E780
FB00
E3C0
0000
1C00
6600
ENDCHAR
STARTCHAR uni1E78
ENCODING 7800
SWIDTH 775 0
DWIDTH 13 0
BBX 13 19 3 0
BITMAP
01C0
0600
0000
0E80
1700
0000
FC78
7020
7020
7020
6040
6040
E040
E040
E040
E080
E080
6100
3E00
ENDCHAR
STARTCHAR uni1E79
ENCODING 7801
SWIDTH 655 0
DWIDTH 11 0
BBX 10 15 2 0
BITMAP
0380
0C00
0000
1D00
2E00
0000
F3C0
71C0
7180
6180
6380
E780
E780
FB00
E3C0
ENDCHAR
STARTCHAR uni1E7A
ENCODING 7802
SWIDTH 775 0
DWIDTH 13 0
BBX 13 17 3 0
BITMAP
1B00
0000
1F00
0000
FC78
7020
7020
7020
6040
6040
E040
E040
E040
E080
E080
6100
3E00
ENDCHAR
STARTCHAR uni1E7B
ENCODING 7803
SWIDTH 655 0
DWIDTH 11 0
BBX 10 13 2 0
BITMAP
1B00
0000
1F00
0000
F3C0
71C0
7180
6180
6380
E780
E780
FB00
E3C0
ENDCHAR
STARTCHAR uni1E7C
ENCODING 7804
SWIDTH 741 0
DWIDTH 13 0
BBX 13 16 2 0
BITMAP
0E80
1700
0000
F838
7010
7020
7060
3040
3880
3880
3900
1B00
1A00
1C00
1C00
1800
ENDCHAR
STARTCHAR uni1E7D
ENCODING 7805
SWIDTH 584 0
DWIDTH 10 0
BBX 10 12 1 0
BITMAP
1D00
2E00
0000
F1C0
70C0
7080
3180
3B00
3A00
3C00
1800
1000
ENDCHAR
STARTCHAR uni1E7E
ENCODING 7806
SWIDTH 741 0
DWIDTH 13 0
BBX 13 16 2 -3
BITMAP
F838
7010
7020
7060
3040
3880
3880
3900
1B00
1A00
1C00
1C00
1800
0000
0C00
0C00
ENDCHAR
STARTCHAR uni1E7F
ENCODING 7807
SWIDTH 584 0
DWIDTH 10 0
BBX 10 12 1 -3
BITMAP
F1C0
70C0
7080
3180
3B00
3A00
3C00
1800
1000
0000
1800
1800
ENDCHAR
STARTCHAR Wgrave
ENCODING 7808
SWIDTH 922 0
DWIDTH 16 0
BBX 16 16 2 0
BITMAP
0600
0100
0000
F087
6182
6184
6384
6388
75C8
75D0
75D0
78E0
78E0
30C0
30C0
2080
ENDCHAR
STARTCHAR wgrave
ENCODING 7809
SWIDTH 822 0
DWIDTH 14 0
BBX 14 12 1 0
BITMAP
0600
0100
0000
E11C
710C
3388
3390
35B0
3DA0
39C0
31C0
3080
ENDCHAR
STARTCHAR Wacute
ENCODING 7810
SWIDTH 922 0
DWIDTH 16 0
BBX 16 16 2 0
BITMAP
00E0
0300
0000
F087
6182
6184
6384
6388
75C8
75D0
75D0
78E0
78E0
30C0
30C0
2080
ENDCHAR
STARTCHAR wacute
ENCODING 7811
SWIDTH 822 0
DWIDTH 14 0
BBX 14 12 1 0
BITMAP
01C0
0600
0000
E11C
710C
3388
3390
35B0
3DA0
39C0
31C0
3080
ENDCHAR
STARTCHAR Wdieresis
ENCODING 7812
SWIDTH 922 0
DWIDTH 16 0
BBX 16 15 2 0
BITMAP
06C0
0000
F087
6182
6184
6384
6388
75C8
75D0
75D0
78E0
78E0
30C0
30C0
2080
ENDCHAR
STARTCHAR wdieresis
ENCODING 7813
SWIDTH 822 0
DWIDTH 14 0
BBX 14 11 1 0
BITMAP
0D80
0000
E11C
710C
3388
3390
35B0
3DA0
39C0
31C0
3080
ENDCHAR
STARTCHAR uni1E86
ENCODING 7814
SWIDTH 922 0
DWIDTH 16 0
BBX 16 16 2 0
BITMAP
0300
0300
0000
F087
6182
6184
6384
6388
75C8
75D0
75D0
78E0
78E0
30C0
30C0
2080
ENDCHAR
STARTCHAR uni1E87
ENCODING 7815
SWIDTH 822 0
DWIDTH 14 0
BBX 14 12 1 0
BITMAP
0300
0300
0000
E11C
710C
3388
3390
35B0
3DA0
39C0
31C0
3080
ENDCHAR
STARTCHAR uni1E88
ENCODING 7816
SWIDTH 922 0
DWIDTH 16 0
BBX 16 16 2 -3
BITMAP
F087
6182
6184
6384
6388
75C8
75D0
75D0
78E0
78E0
30C0
30C0
2080
0000
0300
0300
ENDCHAR
STARTCHAR uni1E89
ENCODING 7817
SWIDTH 822 0
DWIDTH 14 0
BBX 14 12 1 -3
BITMAP
E11C
710C
3388
3390
35B0
3DA0
39C0
31C0
3080
0000
0600
0600
ENDCHAR
STARTCHAR uni1E8A
ENCODING 7818
SWIDTH 672 0
DWIDTH 11 0
BBX 13 16 0 0
BITMAP
0300
0300
0000
1E38
1C30
0E20
0E40
0680
0700
0300
0780
0B80
1180
21C0
60C0
E3E0
ENDCHAR
STARTCHAR uni1E8B
ENCODING 7819
SWIDTH 534 0
DWIDTH 9 0
BBX 9 12 1 0
BITMAP
0C00
0C00
0000
7180
3980
1900
1E00
0C00
3E00
6600
C700
C780
ENDCHAR
STARTCHAR uni1E8C
ENCODING 7820
SWIDTH 672 0
DWIDTH 11 0
BBX 13 15 0 0
BITMAP
0D80
0000
1E38
1C30
0E20
0E40
0680
0700
0300
0780
0B80
1180
21C0
60C0
E3E0
ENDCHAR
STARTCHAR uni1E8D
ENCODING 7821
SWIDTH 534 0
DWIDTH 9 0
BBX 9 11 1 0
BITMAP
3600
0000
7180
3980
1900
1E00
0C00
3E00
6600
C700
C780
ENDCHAR
STARTCHAR uni1E8E
ENCODING 7822
SWIDTH 669 0
DWIDTH 11 0
BBX 12 16 2 0
BITMAP
0C00
0C00
0000
F870
7060
7040
3880
3900
1A00
1E00
1C00
1C00
1800
1800
3800
7E00
ENDCHAR
STARTCHAR uni1E8F
ENCODING 7823
SWIDTH 586 0
DWIDTH 10 0
BBX 12 15 0 -3
BITMAP
0300
0300
0000
3870
1C30
1C20
0C60
0CC0
0F80
0F00
0600
0400
0800
1000
F000
ENDCHAR
STARTCHAR uni1E90
ENCODING 7824
SWIDTH 684 0
DWIDTH 12 0
BBX 12 16 1 0
BITMAP
0380
0CC0
0000
1FF0
10E0
10E0
01C0
0380
0700
0E00
0E00
1C00
3800
7040
70C0
FFC0
ENDCHAR
STARTCHAR uni1E91
ENCODING 7825
SWIDTH 567 0
DWIDTH 10 0
BBX 10 12 1 0
BITMAP
0700
1980
0000
3FC0
2180
2300
0600
0C00
1800
3880
7180
FF80
ENDCHAR
STARTCHAR uni1E92
ENCODING 7826
SWIDTH 684 0
DWIDTH 12 0
BBX 12 16 1 -3
BITMAP
1FF0
10E0
10E0
01C0
0380
0700
0E00
0E00
1C00
3800
7040
70C0
FFC0
0000
0C00
0C00
ENDCHAR
STARTCHAR uni1E93
ENCODING 7827
SWIDTH 567 0
DWIDTH 10 0
BBX 10 12 1 -3
BITMAP
3FC0
2180
2300
0600
0C00
1800
3880
7180
FF80
0000
0C00
0C00
ENDCHAR
STARTCHAR uni1E94
ENCODING 7828
SWIDTH 684 0
DWIDTH 12 0
BBX 12 15 1 -2
BITMAP
1FF0
10E0
10E0
01C0
0380
0700
0E00
0E00
1C00
3800
7040
70C0
FFC0
0000
1F00
ENDCHAR
STARTCHAR uni1E95
ENCODING 7829
SWIDTH 567 0
DWIDTH 10 0
BBX 10 11 1 -2
BITMAP
3FC0
2180
2300
0600
0C00
1800
3880
7180
FF80
0000
3E00
ENDCHAR
STARTCHAR uni1E96
ENCODING 7830
SWIDTH 656 0
DWIDTH 11 0
BBX 10 15 1 -2
BITMAP
7800
3800
3800
3800
3180
37C0
79C0
79C0
7180
6180
6380
E380
E3C0
0000
1F00
ENDCHAR
STARTCHAR uni1E97
ENCODING 7831
SWIDTH 375 0
DWIDTH 6 0
BBX 6 14 2 0
BITMAP
6C
00
30
30
30
FC
70
60
60
60
E0
E0
E0
70
ENDCHAR
STARTCHAR uni1E98
ENCODING 7832
SWIDTH 822 0
DWIDTH 14 0
BBX 14 13 1 0
BITMAP
0700
0500
0700
0000
E11C
710C
3388
3390
35B0
3DA0
39C0
31C0
3080
ENDCHAR
STARTCHAR uni1E99
ENCODING 7833
SWIDTH 586 0
DWIDTH 10 0
BBX 12 16 0 -3
BITMAP
0700
0500
0700
0000
3870
1C30
1C20
0C60
0CC0
0F80
0F00
0600
0400
0800
1000
F000
ENDCHAR
STARTCHAR uni1EA0
ENCODING 7840
SWIDTH 765 0
DWIDTH 13 0
BBX 13 16 0 -3
BITMAP
00C0
01C0
01C0
02C0
02C0
04E0
08E0
0860
1FE0
1070
2070
4070
F0F8
0000
0300
0300
ENDCHAR
STARTCHAR uni1EA1
ENCODING 7841
SWIDTH 634 0
DWIDTH 11 0
BBX 10 12 1 -3
BITMAP
0FC0
11C0
3180
6180
E380
E780
EF80
FB80
63C0
0000
0C00
0C00
ENDCHAR
STARTCHAR uni1EA4
ENCODING 7844
SWIDTH 765 0
DWIDTH 13 0
BBX 13 19 0 0
BITMAP
0070
0180
0000
00E0
0330
0000
00C0
01C0
01C0
02C0
02C0
04E0
08E0
0860
1FE0
1070
2070
4070
F0F8
ENDCHAR
STARTCHAR uni1EA5
ENCODING 7845
SWIDTH 634 0
DWIDTH 11 0
BBX 10 15 1 0
BITMAP
01C0
0600
0000
0380
0CC0
0000
0FC0
11C0
3180
6180
E380
E780
EF80
FB80
63C0
ENDCHAR
STARTCHAR uni1EA6
ENCODING 7846
SWIDTH 765 0
DWIDTH 13 0
BBX 13 19 0 0
BITMAP
0300
0080
0000
00E0
0330
0000
00C0
01C0
01C0
02C0
02C0
04E0
08E0
0860
1FE0
1070
2070
4070
F0F8
ENDCHAR
STARTCHAR uni1EA7
ENCODING 7847
SWIDTH 634 0
DWIDTH 11 0
BBX 10 15 1 0
BITMAP
0C00
0200
0000
0380
0CC0
0000
0FC0
11C0
3180
6180
E380
E780
EF80
FB80
63C0
ENDCHAR
STARTCHAR uni1EAA
ENCODING 7850
SWIDTH 765 0
DWIDTH 13 0
BBX 13 19 0 0
BITMAP
03A0
05C0
0000
00E0
0330
0000
00C0
01C0
01C0
02C0
02C0
04E0
08E0
0860
1FE0
1070
2070
4070
F0F8
ENDCHAR
STARTCHAR uni1EAB
ENCODING 7851
SWIDTH 634 0
DWIDTH 11 0
BBX 10 15 1 0
BITMAP
0740
0B80
0000
0380
0CC0
0000
0FC0
11C0
3180
6180
E380
E780
EF80
FB80
63C0
ENDCHAR
STARTCHAR uni1EAC
ENCODING 7852
SWIDTH 765 0
DWIDTH 13 0
BBX 13 19 0 -3
BITMAP
01C0
0660
0000
00C0
01C0
01C0
02C0
02C0
04E0
08E0
0860
1FE0
1070
2070
4070
F0F8
0000
0300
0300
ENDCHAR
STARTCHAR uni1EAD
ENCODING 7853
SWIDTH 634 0
DWIDTH 11 0
BBX 10 15 1 -3
BITMAP
0700
1980
0000
0FC0
11C0
3180
6180
E380
E780
EF80
FB80
63C0
0000
0C00
0C00
ENDCHAR
STARTCHAR uni1EAE
ENCODING 7854
SWIDTH 765 0
DWIDTH 13 0
BBX 13 19 0 0
BITMAP
00E0
0300
0000
0420
03C0
0000
00C0
01C0
01C0
02C0
02C0
04E0
08E0
0860
1FE0
1070
2070
4070
F0F8
ENDCHAR
STARTCHAR uni1EAF
ENCODING 7855
SWIDTH 634 0
DWIDTH 11 0
BBX 10 15 1 0
BITMAP
01C0
0600
0000
1080
0F00
0000
0FC0
11C0
3180
6180
E380
E780
EF80
FB80
63C0
ENDCHAR
STARTCHAR uni1EB0
ENCODING 7856
SWIDTH 765 0
DWIDTH 13 0
BBX 13 19 0 0
BITMAP
0300
0080
0000
0420
03C0
0000
00C0
01C0
01C0
02C0
02C0
04E0
08E0
0860
1FE0
1070
2070
4070
F0F8
ENDCHAR
STARTCHAR uni1EB1
ENCODING 7857
SWIDTH 634 0
DWIDTH 11 0
BBX 10 15 1 0
BITMAP
0C00
0200
0000
1080
0F00
0000
0FC0
11C0
3180
6180
E380
E780
EF80
FB80
63C0
ENDCHAR
STARTCHAR uni1EB4
ENCODING 7860
SWIDTH 765 0
DWIDTH 13 0
BBX 13 19 0 0
BITMAP
03A0
05C0
0000
0420
03C0
0000
00C0
01C0
01C0
02C0
02C0
04E0
08E0
0860
1FE0
1070
2070
4070
F0F8
ENDCHAR
STARTCHAR uni1EB5
ENCODING 7861
SWIDTH 634 0
DWIDTH 11 0
BBX 10 15 1 0
BITMAP
0E80
1700
0000
1080
0F00
0000
0FC0
11C0
3180
6180
E380
E780
EF80
FB80
63C0
ENDCHAR
STARTCHAR uni1EB6
ENCODING 7862
SWIDTH 765 0
DWIDTH 13 0
BBX 13 19 0 -3
BITMAP
0420
03C0
0000
00C0
01C0
01C0
02C0
02C0
04E0
08E0
0860
1FE0
1070
2070
4070
F0F8
0000
0300
0300
ENDCHAR
STARTCHAR uni1EB7
ENCODING 7863
SWIDTH 634 0
DWIDTH 11 0
BBX 10 15 1 -3
BITMAP
1080
0F00
0000
0FC0
11C0
3180
6180
E380
E780
EF80
FB80
63C0
0000
0C00
0C00
ENDCHAR
STARTCHAR uni1EB8
ENCODING 7864
SWIDTH 630 0
DWIDTH 11 0
BBX 11 16 1 -3
BITMAP
3FE0
1C60
1C00
1C00
1800
1880
3F80
3880
3800
3000
3000
7080
FF80
0000
0C00
0C00
ENDCHAR
STARTCHAR uni1EB9
ENCODING 7865
SWIDTH 548 0
DWIDTH 9 0
BBX 8 12 1 -3
BITMAP
0E
33
63
63
E6
FC
E0
E1
7E
00
30
30
ENDCHAR
STARTCHAR uni1EBC
ENCODING 7868
SWIDTH 630 0
DWIDTH 11 0
BBX 11 16 1 0
BITMAP
0E80
1700
0000
3FE0
1C60
1C00
1C00
1800
1880
3F80
3880
3800
3000
3000
7080
FF80
ENDCHAR
STARTCHAR uni1EBD
ENCODING 7869
SWIDTH 548 0
DWIDTH 9 0
BBX 8 12 1 0
BITMAP
1D
2E
00
0E
33
63
63
E6
FC
E0
E1
7E
ENDCHAR
STARTCHAR uni1EBE
ENCODING 7870
SWIDTH 630 0
DWIDTH 11 0
BBX 11 19 1 0
BITMAP
01C0
0600
0000
0380
0CC0
0000
3FE0
1C60
1C00
1C00
1800
1880
3F80
3880
3800
3000
3000
7080
FF80
ENDCHAR
STARTCHAR uni1EBF
ENCODING 7871
SWIDTH 548 0
DWIDTH 9 0
BBX 9 15 1 0
BITMAP
0380
0C00
0000
0700
1980
0000
0E00
3300
6300
6300
E600
FC00
E000
E100
7E00
ENDCHAR
STARTCHAR uni1EC0
ENCODING 7872
SWIDTH 630 0
DWIDTH 11 0
BBX 11 19 1 0
BITMAP
0C00
0200
0000
0380
0CC0
0000
3FE0
1C60
1C00
1C00
1800
1880
3F80
3880
3800
3000
3000
7080
FF80
ENDCHAR
STARTCHAR uni1EC1
ENCODING 7873
SWIDTH 548 0
DWIDTH 9 0
BBX 9 15 1 0
BITMAP
1800
0400
0000
0700
1980
0000
0E00
3300
6300
6300
E600
FC00
E000
E100
7E00
ENDCHAR
STARTCHAR uni1EC4
ENCODING 7876
SWIDTH 630 0
DWIDTH 11 0
BBX 11 19 1 0
BITMAP
0740
0B80
0000
0380
0CC0
0000
3FE0
1C60
1C00
1C00
1800
1880
3F80
3880
3800
3000
3000
7080
FF80
ENDCHAR
STARTCHAR uni1EC5
ENCODING 7877
SWIDTH 548 0
DWIDTH 9 0
BBX 9 15 1 0
BITMAP
0E80
1700
0000
0700
1980
0000
0E00
3300
6300
6300
E600
FC00
E000
E100
7E00
ENDCHAR
STARTCHAR uni1EC6
ENCODING 7878
SWIDTH 630 0
DWIDTH 11 0
BBX 11 19 1 -3
BITMAP
0700
1980
0000
3FE0
1C60
1C00
1C00
1800
1880
3F80
3880
3800
3000
3000
7080
FF80
0000
0C00
0C00
ENDCHAR
STARTCHAR uni1EC7
ENCODING 7879
SWIDTH 548 0
DWIDTH 9 0
BBX 8 15 1 -3
BITMAP
0E
33
00
0E
33
63
63
E6
FC
E0
E1
7E
00
30
30
ENDCHAR
STARTCHAR uni1ECA
ENCODING 7882
SWIDTH 372 0
DWIDTH 6 0
BBX 8 16 0 -3
BITMAP
3F
0E
0C
1C
1C
1C
18
18
38
38
38
70
FC
00
30
30
ENDCHAR
STARTCHAR uni1ECB
ENCODING 7883
SWIDTH 319 0
DWIDTH 5 0
BBX 5 16 2 -3
BITMAP
38
38
00
00
F0
70
70
70
60
60
E0
E0
F0
00
60
60
ENDCHAR
STARTCHAR uni1ECC
ENCODING 7884
SWIDTH 831 0
DWIDTH 14 0
BBX 13 16 2 -3
BITMAP
07C0
0C70
3830
3038
7038
6038
E038
E030
E070
E060
E0C0
7180
3E00
0000
0C00
0C00
ENDCHAR
STARTCHAR uni1ECD
ENCODING 7885
SWIDTH 599 0
DWIDTH 10 0
BBX 9 12 1 -3
BITMAP
0F00
3180
7180
6180
E180
E380
E300
E600
7C00
0000
1800
1800
ENDCHAR
STARTCHAR uni1ED0
ENCODING 7888
SWIDTH 831 0
DWIDTH 14 0
BBX 13 19 2 0
BITMAP
00E0
0300
0000
01C0
0660
0000
07C0
0C70
3830
3038
7038
6038
E038
E030
E070
E060
E0C0
7180
3E00
ENDCHAR
STARTCHAR uni1ED1
ENCODING 7889
SWIDTH 599 0
DWIDTH 10 0
BBX 9 15 1 0
BITMAP
0380
0C00
0000
0700
1980
0000
0F00
3180
7180
6180
E180
E380
E300
E600
7C00
ENDCHAR
STARTCHAR uni1ED2
ENCODING 7890
SWIDTH 831 0
DWIDTH 14 0
BBX 13 19 2 0
BITMAP
0600
0100
0000
01C0
0660
0000
07C0
0C70
3830
3038
7038
6038
E038
E030
E070
E060
E0C0
7180
3E00
ENDCHAR
STARTCHAR uni1ED3
ENCODING 7891
SWIDTH 599 0
DWIDTH 10 0
BBX 9 15 1 0
BITMAP
1800
0400
0000
0700
1980
0000
0F00
3180
7180
6180
E180
E380
E300
E600
7C00
ENDCHAR
STARTCHAR uni1ED6
ENCODING 7894
SWIDTH 831 0
DWIDTH 14 0
BBX 13 19 2 0
BITMAP
03A0
05C0
0000
01C0
0660
0000
07C0
0C70
3830
3038
7038
6038
E038
E030
E070
E060
E0C0
7180
3E00
ENDCHAR
STARTCHAR uni1ED7
ENCODING 7895
SWIDTH 599 0
DWIDTH 10 0
BBX 9 15 1 0
BITMAP
0E80
1700
0000
0700
1980
0000
0F00
3180
7180
6180
E180
E380
E300
E600
7C00
ENDCHAR
STARTCHAR uni1ED8
ENCODING 7896
SWIDTH 831 0
DWIDTH 14 0
BBX 13 19 2 -3
BITMAP
0380
0CC0
0000
07C0
0C70
3830
3038
7038
6038
E038
E030
E070
E060
E0C0
7180
3E00
0000
0C00
0C00
ENDCHAR
STARTCHAR uni1ED9
ENCODING 7897
SWIDTH 599 0
DWIDTH 10 0
BBX 9 15 1 -3
BITMAP
0E00
3300
0000
0F00
3180
7180
6180
E180
E380
E300
E600
7C00
0000
1800
1800
ENDCHAR
STARTCHAR uni1EDA
ENCODING 7898
SWIDTH 831 0
DWIDTH 14 0
BBX 16 16 2 0
BITMAP
0038
00C0
0000
07C7
0C77
3837
303A
703E
603C
E038
E030
E070
E060
E0C0
7180
3E00
ENDCHAR
STARTCHAR uni1EDB
ENCODING 7899
SWIDTH 599 0
DWIDTH 10 0
BBX 12 12 1 0
BITMAP
01C0
0600
0000
0F70
31F0
71F0
61A0
E1E0
E3C0
E300
E600
7C00
ENDCHAR
STARTCHAR uni1EDC
ENCODING 7900
SWIDTH 831 0
DWIDTH 14 0
BBX 16 16 2 0
BITMAP
0180
0040
0000
07C7
0C77
3837
303A
703E
603C
E038
E030
E070
E060
E0C0
7180
3E00
ENDCHAR
STARTCHAR uni1EDD
ENCODING 7901
SWIDTH 599 0
DWIDTH 10 0
BBX 12 12 1 0
BITMAP
0600
0100
0000
0F70
31F0
71F0
61A0
E1E0
E3C0
E300
E600
7C00
ENDCHAR
STARTCHAR uni1EE0
ENCODING 7904
SWIDTH 831 0
DWIDTH 14 0
BBX 16 16 2 0
BITMAP
01D0
02E0
0000
07C7
0C77
3837
303A
703E
603C
E038
E030
E070
E060
E0C0
7180
3E00
ENDCHAR
STARTCHAR uni1EE1
ENCODING 7905
SWIDTH 599 0
DWIDTH 10 0
BBX 12 12 1 0
BITMAP
0740
0B80
0000
0F70
31F0
71F0
61A0
E1E0
E3C0
E300
E600
7C00
ENDCHAR
STARTCHAR uni1EE2
ENCODING 7906
SWIDTH 831 0
DWIDTH 14 0
BBX 16 16 2 -3
BITMAP
07C7
0C77
3837
303A
703E
603C
E038
E030
E070
E060
E0C0
7180
3E00
0000
0600
0600
ENDCHAR
STARTCHAR uni1EE3
ENCODING 7907
SWIDTH 599 0
DWIDTH 10 0
BBX 12 12 1 -3
BITMAP
0F70
31F0
71F0
61A0
E1E0
E3C0
E300
E600
7C00
0000
1800
1800
ENDCHAR
STARTCHAR uni1EE4
ENCODING 7908
SWIDTH 775 0
DWIDTH 13 0
BBX 13 16 3 -3
BITMAP
FC78
7020
7020
7020
6040
6040
E040
E040
E040
E080
E080
6100
3E00
0000
0C00
0C00
ENDCHAR
STARTCHAR uni1EE5
ENCODING 7909
SWIDTH 655 0
DWIDTH 11 0
BBX 10 12 2 -3
BITMAP
F3C0
71C0
7180
6180
6380
E780
E780
FB00
E3C0
0000
0C00
0C00
ENDCHAR
STARTCHAR uni1EE8
ENCODING 7912
SWIDTH 775 0
DWIDTH 13 0
BBX 16 16 3 0
BITMAP
0070
0180
0000
FC7F
7027
7027
7022
6046
604C
E040
E040
E040
E080
E080
6100
3E00
ENDCHAR
STARTCHAR uni1EE9
ENCODING 7913
SWIDTH 655 0
DWIDTH 11 0
BBX 13 12 2 0
BITMAP
01C0
0600
0000
F3F8
71F8
71B8
6190
63B0
E7E0
E780
FB00
E3C0
ENDCHAR
STARTCHAR uni1EEA
ENCODING 7914
SWIDTH 775 0
DWIDTH 13 0
BBX 16 16 3 0
BITMAP
0300
0080
0000
FC7F
7027
7027
7022
6046
604C
E040
E040
E040
E080
E080
6100
3E00
ENDCHAR
STARTCHAR uni1EEB
ENCODING 7915
SWIDTH 655 0
DWIDTH 11 0
BBX 13 12 2 0
BITMAP
0600
0100
0000
F3F8
71F8
71B8
6190
63B0
E7E0
E780
FB00
E3C0
ENDCHAR
STARTCHAR uni1EEE
ENCODING 7918
SWIDTH 775 0
DWIDTH 13 0
BBX 16 16 3 0
BITMAP
03A0
05C0
0000
FC7F
7027
7027
7022
6046
604C
E040
E040
E040
E080
E080
6100
3E00
ENDCHAR
STARTCHAR uni1EEF
ENCODING 7919
SWIDTH 655 0
DWIDTH 11 0
BBX 13 12 2 0
BITMAP
0740
0B80
0000
F3F8
71F8
71B8
6190
63B0
E7E0
E780
FB00
E3C0
ENDCHAR
STARTCHAR uni1EF0
ENCODING 7920
SWIDTH 775 0
DWIDTH 13 0
BBX 16 16 3 -3
BITMAP
FC7F
7027
7027
7022
6046
604C
E040
E040
E040
E080
E080
6100
3E00
0000
0C00
0C00
ENDCHAR
STARTCHAR uni1EF1
ENCODING 7921
SWIDTH 655 0
DWIDTH 11 0
BBX 13 12 2 -3
BITMAP
F3F8
71F8
71B8
6190
63B0
E7E0
E780
FB00
E3C0
0000
0C00
0C00
ENDCHAR
STARTCHAR Ygrave
ENCODING 7922
SWIDTH 669 0
DWIDTH 11 0
BBX 12 16 2 0
BITMAP
1800
0400
0000
F870
7060
7040
3880
3900
1A00
1E00
1C00
1C00
1800
1800
3800
7E00
ENDCHAR
STARTCHAR ygrave
ENCODING 7923
SWIDTH 586 0
DWIDTH 10 0
BBX 12 15 0 -3
BITMAP
0C00
0200
0000
3870
1C30
1C20
0C60
0CC0
0F80
0F00
0600
0400
0800
1000
F000
ENDCHAR
STARTCHAR uni1EF4
ENCODING 7924
SWIDTH 669 0
DWIDTH 11 0
BBX 12 16 2 -3
BITMAP
F870
7060
7040
3880
3900
1A00
1E00
1C00
1C00
1800
1800
3800
7E00
0000
0C00
0C00
ENDCHAR
STARTCHAR uni1EF5
ENCODING 7925
SWIDTH 586 0
DWIDTH 10 0
BBX 12 15 0 -6
BITMAP
3870
1C30
1C20
0C60
0CC0
0F80
0F00
0600
0400
0800
1000
F000
0000
1800
1800
ENDCHAR
STARTCHAR uni1EF8
ENCODING 7928
SWIDTH 669 0
DWIDTH 11 0
BBX 12 16 2 0
BITMAP
0E80
1700
0000
F870
7060
7040
3880
3900
1A00
1E00
1C00
1C00
1800
1800
3800
7E00
ENDCHAR
STARTCHAR uni1EF9
ENCODING 7929
SWIDTH 586 0
DWIDTH 10 0
BBX 12 15 0 -3
BITMAP
0740
0B80
0000
3870
1C30
1C20
0C60
0CC0
0F80
0F00
0600
0400
0800
1000
F000
ENDCHAR
STARTCHAR uni2000
ENCODING 8192
SWIDTH 500 0
DWIDTH 8 0
BBX 1 1 0 0
BITMAP
00
ENDCHAR
STARTCHAR uni2001
ENCODING 8193
SWIDTH 1000 0
DWIDTH 17 0
BBX 1 1 0 0
BITMAP
00
ENDCHAR
STARTCHAR uni2002
ENCODING 8194
SWIDTH 500 0
DWIDTH 8 0
BBX 1 1 0 0
BITMAP
00
ENDCHAR
STARTCHAR uni2003
ENCODING 8195
SWIDTH 1000 0
DWIDTH 17 0
BBX 1 1 0 0
BITMAP
00
ENDCHAR
STARTCHAR uni2004
ENCODING 8196
SWIDTH 333 0
DWIDTH 6 0
BBX 1 1 0 0
BITMAP
00
ENDCHAR
STARTCHAR uni2005
ENCODING 8197
SWIDTH 250 0
DWIDTH 4 0
BBX 1 1 0 0
BITMAP
00
ENDCHAR
STARTCHAR uni2006
ENCODING 8198
SWIDTH 167 0
DWIDTH 3 0
BBX 1 1 0 0
BITMAP
00
ENDCHAR
STARTCHAR uni2007
ENCODING 8199
SWIDTH 623 0
DWIDTH 11 0
BBX 1 1 0 0
BITMAP
00
ENDCHAR
STARTCHAR uni2008
ENCODING 8200
SWIDTH 265 0
DWIDTH 4 0
BBX 1 1 0 0
BITMAP
00
ENDCHAR
STARTCHAR uni2009
ENCODING 8201
SWIDTH 200 0
DWIDTH 3 0
BBX 1 1 0 0
BITMAP
00
ENDCHAR
STARTCHAR uni200A
ENCODING 8202
SWIDTH 100 0
DWIDTH 2 0
BBX 1 1 0 0
BITMAP
00
ENDCHAR
STARTCHAR uni200B
ENCODING 8203
SWIDTH 0 0
DWIDTH 0 0
BBX 1 1 0 0
BITMAP
00
ENDCHAR
STARTCHAR uni2010
ENCODING 8208
SWIDTH 289 0
DWIDTH 5 0
BBX 4 1 2 5
BITMAP
F0
ENDCHAR
STARTCHAR uni2011
ENCODING 8209
SWIDTH 289 0
DWIDTH 5 0
BBX 4 1 2 5
BITMAP
F0
ENDCHAR
STARTCHAR figuredash
ENCODING 8210
SWIDTH 500 0
DWIDTH 8 0
BBX 7 1 2 5
BITMAP
FE
ENDCHAR
STARTCHAR endash
ENCODING 8211
SWIDTH 500 0
DWIDTH 8 0
BBX 7 1 2 5
BITMAP
FE
ENDCHAR
STARTCHAR emdash
ENCODING 8212
SWIDTH 1000 0
DWIDTH 17 0
BBX 16 1 1 5
BITMAP
FFFF
ENDCHAR
STARTCHAR afii00208
ENCODING 8213
SWIDTH 1000 0
DWIDTH 17 0
BBX 16 1 1 5
BITMAP
FFFF
ENDCHAR
STARTCHAR quoteleft
ENCODING 8216
SWIDTH 265 0
DWIDTH 4 0
BBX 4 6 2 7
BITMAP
30
60
40
E0
E0
E0
ENDCHAR
STARTCHAR quoteright
ENCODING 8217
SWIDTH 265 0
DWIDTH 4 0
BBX 4 6 2 7
BITMAP
70
70
70
20
60
C0
ENDCHAR
STARTCHAR quotesinglbase
ENCODING 8218
SWIDTH 265 0
DWIDTH 4 0
BBX 4 6 0 -3
BITMAP
70
70
70
20
60
C0
ENDCHAR
STARTCHAR quotereversed
ENCODING 8219
SWIDTH 265 0
DWIDTH 4 0
BBX 4 6 2 7
BITMAP
E0
E0
E0
40
60
30
ENDCHAR
STARTCHAR quotedblleft
ENCODING 8220
SWIDTH 464 0
DWIDTH 8 0
BBX 7 6 2 7
BITMAP
26
6C
4C
EC
EC
CC
ENDCHAR
STARTCHAR quotedblright
ENCODING 8221
SWIDTH 464 0
DWIDTH 8 0
BBX 7 6 2 7
BITMAP
66
6E
6E
64
6C
C8
ENDCHAR
STARTCHAR quotedblbase
ENCODING 8222
SWIDTH 464 0
DWIDTH 8 0
BBX 7 6 0 -3
BITMAP
66
6E
6E
64
6C
C8
ENDCHAR
STARTCHAR uni201F
ENCODING 8223
SWIDTH 464 0
DWIDTH 8 0
BBX 7 6 2 7
BITMAP
CC
EC
EC
4C
6C
26
ENDCHAR
STARTCHAR dagger
ENCODING 8224
SWIDTH 636 0
DWIDTH 11 0
BBX 8 16 3 -3
BITMAP
0C
0C
1C
18
18
FF
18
18
18
30
30
30
30
30
70
60
ENDCHAR
STARTCHAR daggerdbl
ENCODING 8225
SWIDTH 636 0
DWIDTH 11 0
BBX 9 16 2 -3
BITMAP
0600
0600
0E00
0C00
0C00
7F80
0C00
0C00
1C00
1800
FF00
1800
1800
1800
3800
3000
ENDCHAR
STARTCHAR bullet
ENCODING 8226
SWIDTH 636 0
DWIDTH 11 0
BBX 6 6 3 2
BITMAP
78
FC
FC
FC
FC
78
ENDCHAR
STARTCHAR ellipsis
ENCODING 8230
SWIDTH 1000 0
DWIDTH 17 0
BBX 13 2 2 0
BITMAP
C318
C618
ENDCHAR
STARTCHAR perthousand
ENCODING 8240
SWIDTH 1156 0
DWIDTH 20 0
BBX 17 13 2 0
BITMAP
383000
6C6000
CCC000
CD8000
D90000
720000
06E700
0D2D80
0B2D80
133980
336980
636900
C1CE00
ENDCHAR
STARTCHAR guilsinglleft
ENCODING 8249
SWIDTH 310 0
DWIDTH 5 0
BBX 5 9 1 0
BITMAP
08
18
30
60
C0
60
60
20
30
ENDCHAR
STARTCHAR guilsinglright
ENCODING 8250
SWIDTH 310 0
DWIDTH 5 0
BBX 5 9 1 0
BITMAP
60
20
30
30
18
30
60
C0
80
ENDCHAR
STARTCHAR fraction
ENCODING 8260
SWIDTH 55 0
DWIDTH 1 0
BBX 14 13 -4 0
BITMAP
000C
0010
0030
0060
00C0
0180
0300
0600
0C00
1800
3000
2000
C000
ENDCHAR
STARTCHAR oneinferior
ENCODING 8321
SWIDTH 381 0
DWIDTH 6 0
BBX 4 8 -11 -4
BITMAP
70
30
30
20
20
20
60
F0
ENDCHAR
STARTCHAR twoinferior
ENCODING 8322
SWIDTH 381 0
DWIDTH 6 0
BBX 6 8 -10 -4
BITMAP
38
44
04
0C
10
60
40
F8
ENDCHAR
STARTCHAR threeinferior
ENCODING 8323
SWIDTH 381 0
DWIDTH 6 0
BBX 5 8 -10 -4
BITMAP
38
48
08
70
18
08
98
F0
ENDCHAR
STARTCHAR uni20A5
ENCODING 8357
SWIDTH 969 0
DWIDTH 16 0
BBX 15 16 2 -3
BITMAP
000C
0008
0010
0030
F3BC
77FE
79EE
71CE
73CC
638C
630C
E71C
CF1E
0800
1000
3000
ENDCHAR
STARTCHAR uni20A6
ENCODING 8358
SWIDTH 797 0
DWIDTH 14 0
BBX 15 13 0 0
BITMAP
3C1E
1C0C
1E08
1608
1FF8
1318
1390
3190
3FF0
20D0
20F0
6060
F060
ENDCHAR
STARTCHAR uni20A9
ENCODING 8361
SWIDTH 922 0
DWIDTH 16 0
BBX 16 13 2 0
BITMAP
F087
6182
6184
6384
6FFC
75C8
75D0
75D0
7FF8
78E0
30C0
30C0
2080
ENDCHAR
STARTCHAR Euro
ENCODING 8364
SWIDTH 740 0
DWIDTH 13 0
BBX 15 13 -1 0
BITMAP
00FE
0386
0706
0606
7FE0
0C00
1C00
1C00
FFC0
1C00
0C00
0E18
03F0
ENDCHAR
STARTCHAR uni20AD
ENCODING 8365
SWIDTH 746 0
DWIDTH 13 0
BBX 13 13 1 0
BITMAP
3E38
1C30
1C40
1880
1900
1A00
FFF8
3F00
3B80
31C0
31C0
70E0
F9F0
ENDCHAR
STARTCHAR uni2103
ENCODING 8451
SWIDTH 986 0
DWIDTH 17 0
BBX 14 13 4 0
BITMAP
C1FC
A70C
AE0C
CC0C
1800
1800
3800
3800
3800
3800
1800
1C30
07E0
ENDCHAR
STARTCHAR uni2109
ENCODING 8457
SWIDTH 848 0
DWIDTH 14 0
BBX 12 13 4 0
BITMAP
DFF0
AE30
AE00
CC00
0C00
0C40
1FC0
1C40
1C00
1800
1800
3800
7C00
ENDCHAR
STARTCHAR trademark
ENCODING 8482
SWIDTH 1044 0
DWIDTH 18 0
BBX 17 7 2 6
BITMAP
FEE380
9A7700
107700
307A00
30FE00
30D600
798700
ENDCHAR
STARTCHAR uni212A
ENCODING 8490
SWIDTH 746 0
DWIDTH 13 0
BBX 13 13 1 0
BITMAP
3E38
1C30
1C40
1880
1900
1A00
1F00
3F00
3B80
31C0
31C0
70E0
F9F0
ENDCHAR
STARTCHAR uni212B
ENCODING 8491
SWIDTH 765 0
DWIDTH 13 0
BBX 13 17 0 0
BITMAP
00E0
00A0
00E0
0000
00C0
01C0
01C0
02C0
02C0
04E0
08E0
0860
1FE0
1070
2070
4070
F0F8
ENDCHAR
STARTCHAR uni2132
ENCODING 8498
SWIDTH 602 0
DWIDTH 10 0
BBX 11 13 1 0
BITMAP
03E0
01C0
0180
0180
0380
2380
3F80
2300
0300
0300
0700
C700
FF80
ENDCHAR
STARTCHAR minus
ENCODING 8722
SWIDTH 636 0
DWIDTH 11 0
BBX 10 1 1 5
BITMAP
FFC0
ENDCHAR
STARTCHAR fraction
ENCODING 8725
SWIDTH 55 0
DWIDTH 1 0
BBX 14 13 -4 0
BITMAP
000C
0010
0030
0060
00C0
0180
0300
0600
0C00
1800
3000
2000
C000
ENDCHAR
STARTCHAR periodcentered
ENCODING 8729
SWIDTH 636 0
DWIDTH 11 0
BBX 2 2 5 4
BITMAP
C0
C0
ENDCHAR
STARTCHAR uni2236
ENCODING 8758
SWIDTH 265 0
DWIDTH 4 0
BBX 4 9 1 0
BITMAP
30
70
00
00
00
00
00
E0
C0
ENDCHAR
STARTCHAR uni2259
ENCODING 8793
SWIDTH 636 0
DWIDTH 11 0
BBX 11 8 1 2
BITMAP
0700
1980
0000
7FE0
0000
0000
0000
FFC0
ENDCHAR
STARTCHAR uni225A
ENCODING 8794
SWIDTH 636 0
DWIDTH 11 0
BBX 11 8 1 2
BITMAP
1980
0E00
0000
7FE0
0000
0000
0000
FFC0
ENDCHAR
STARTCHAR notequal
ENCODING 8800
SWIDTH 636 0
DWIDTH 11 0
BBX 12 16 1 -3
BITMAP
0030
0020
0040
00C0
0080
0100
7FE0
0200
0400
0C00
FFC0
1000
3000
2000
4000
C000
ENDCHAR
STARTCHAR equivalence
ENCODING 8801
SWIDTH 636 0
DWIDTH 11 0
BBX 11 5 0 3
BITMAP
FFE0
0000
FFE0
0000
FFE0
ENDCHAR
STARTCHAR uni2262
ENCODING 8802
SWIDTH 636 0
DWIDTH 11 0
BBX 12 16 0 -2
BITMAP
0030
0020
0040
00C0
0080
0100
FFE0
0200
FFE0
0C00
FFE0
1000
3000
2000
4000
C000
ENDCHAR
STARTCHAR lessequal
ENCODING 8804
SWIDTH 636 0
DWIDTH 11 0
BBX 11 13 1 -2
BITMAP
0020
00E0
0380
0E00
3800
E000
3000
1C00
0700
0180
0080
0000
FFE0
ENDCHAR
STARTCHAR greaterequal
ENCODING 8805
SWIDTH 636 0
DWIDTH 11 0
BBX 11 13 0 -2
BITMAP
2000
3000
1C00
0700
0180
00E0
0380
0E00
3800
E000
8000
0000
FFE0
ENDCHAR
STARTCHAR uni226E
ENCODING 8814
SWIDTH 636 0
DWIDTH 11 0
BBX 12 16 1 -2
BITMAP
0030
0020
0040
00E0
00E0
0380
0F00
3A00
E400
3C00
1C00
1700
3180
2080
4000
C000
ENDCHAR
STARTCHAR uni226F
ENCODING 8815
SWIDTH 636 0
DWIDTH 11 0
BBX 12 16 0 -2
BITMAP
0030
0020
0040
20C0
3080
1D00
0700
0380
04E0
0F80
0E00
3800
F000
A000
4000
C000
ENDCHAR
STARTCHAR uni2270
ENCODING 8816
SWIDTH 636 0
DWIDTH 11 0
BBX 12 16 1 -3
BITMAP
0030
0020
0060
00E0
0380
0F00
3B00
E200
3400
1C00
0F00
1180
3080
2000
FFE0
C000
ENDCHAR
STARTCHAR uni2271
ENCODING 8817
SWIDTH 636 0
DWIDTH 11 0
BBX 12 16 0 -3
BITMAP
0030
0020
2040
30C0
1C80
0700
0380
02E0
0780
0E00
3800
F000
B000
2000
FFE0
C000
ENDCHAR
STARTCHAR fi
ENCODING -1
SWIDTH 662 0
DWIDTH 11 0
BBX 11 16 1 -3
BITMAP
0760
09E0
1800
3800
7FC0
30C0
31C0
31C0
7180
7180
6180
6380
63C0
E000
E000
C000
ENDCHAR
STARTCHAR fl
ENCODING -1
SWIDTH 668 0
DWIDTH 11 0
BBX 11 16 1 -3
BITMAP
07E0
0CE0
18E0
38C0
7EC0
30C0
31C0
31C0
7180
7180
6180
6380
63C0
E000
E000
C000
ENDCHAR
ENDFONT
